<?xml version="1.0" encoding="utf-8"?>
<!-- Generator: Adobe Illustrator 19.0.0, SVG Export Plug-In . SVG Version: 6.00 Build 0)  -->
<svg version="1.1" id="Слой_1" xmlns="http://www.w3.org/2000/svg" xmlns:xlink="http://www.w3.org/1999/xlink" x="0px" y="0px"
	 viewBox="0 0 1000 1000" style="enable-background:new 0 0 1000 1000;" xml:space="preserve">
<style type="text/css">
	.st0{fill:#DDDDDD;}
</style>
<path id="XMLID_16_" class="st0" d="M661.5,749.6c0.5-1.8,1.6-2.6,2.7-3.3c1.7-1,3.5-1.8,5.4-2.7c1.9-0.9,4-1.5,5.9-2.4
	c3.3-1.4,3.9-4.3,1.6-7c-0.6-0.7-1.3-1.3-2-2c-1.4-1.4-2.1-3-1.9-5.1c0.1-1.1,0.1-2.1,0.1-3.2c0-2.3-0.8-4.1-3.1-5.1
	c-2.7-1.1-4.8-2.8-6.1-5.5c-0.9-1.8-2.5-2.8-4.6-2.5c-1.5,0.2-2.9,0.3-4.4,0.4c-1.1,0.1-2.1,0.4-3.2,0.4c-1.7,0-2.7-0.8-3.1-2.5
	c-0.3-1-0.4-2.1-0.7-3.1c-0.6-2.2-1.4-4.3-2.1-6.4c-0.1-0.4-0.4-0.7-0.5-1.1c-0.6-1.9,0.2-3.7,2.1-3.9c2.6-0.4,4.3-1.8,5.9-3.8
	c0.8-1,1.6-2.1,2.6-3c4.1-3.6,6.2-8.2,7.1-13.5c0-0.2,0.2-0.5,0.4-0.8c0.3-0.1,0.7-0.4,1-0.4c3.1,0.1,6.1,0.2,9.2,0.3
	c0.1,0,0.3,0,0.4,0c5.3-0.8,10.6-0.8,15.9-1.2c1.1-0.1,2.1-0.3,3.2-0.3c3.6-0.1,6.8-1.4,9.6-3.4c0.5-0.4,1.1-0.8,1.6-1.2
	c1.5-0.9,3.1-1.3,4.9-0.8c3.2,0.8,4.7,0,6.1-3c1.1-2.3,1.8-4.7,0.2-7.2c-0.8-1.3-0.7-2.5,0.4-3.6c2.3-2.5,2.7-5.7,3.6-8.8
	c0.5-1.9-0.5-3.3-1.7-4.7c-1.6-1.9-3.2-3.9-5-5.7c-1.5-1.6-2.1-3.4-2-5.4c0-0.5,0-1.1,0.1-1.6c0.2-1.8-0.4-3.4-1.6-4.8
	c-0.5-0.6-0.9-1.2-1.3-1.8c0.3-0.4,0.4-0.8,0.6-0.8c2.5-0.5,4.1-1.8,4-4.6c0-0.5,0.3-1,0.6-1.5c0.8-1.6,2-2,3.6-1.1
	c0.3,0.2,0.6,0.5,0.9,0.7c1.7,1.3,3.5,1.1,5.2,0.1c1.4-0.8,2.7-1.6,4.1-2.5c3.7-2.4,7.4-4.8,11-7.2c3.7-2.5,6.6-5.8,9.5-9.1
	c0.5-0.6,0.7-1.4,1-2.2c0.3-1,0.4-2.1,0.7-3.1c0.6-2.2,0.4-4.2-0.5-6.3c-0.7-1.6-1.3-3.2-2-4.8c-0.6-1.2-0.5-2.3,0.5-3.3
	c0.4-0.4,0.7-0.8,1.1-1.2c1.1-1.4,1.5-2.8,0.5-4.4c-0.3-0.5-0.5-0.9-0.7-1.4c-0.6-1.2-0.5-2.3,0.2-3.4c0.2-0.3,0.4-0.7,0.7-1
	c1.7-1.8,2.3-3.9,1.7-6.3c-0.5-2.1,0.3-3.5,2-4.8c1.3-1.1,2.5-2.4,3.7-3.7c1.5-1.5,1.7-3.3,0.8-5.2c-0.3-0.7-0.6-1.4-1-2.5
	c0.9,0.2,1.5,0.1,1.8,0.3c1.2,0.8,2.4,1.7,3.5,2.6c2.4,1.8,4.8,2,7.4,0.4c1-0.6,2-1.3,3.1-1.8c1-0.4,1.8-0.1,2.4,0.8
	c1.5,2.2,3,4.4,4.5,6.6c1.3,2,3,2.9,5.4,2.9c3.1,0.1,6.1,0.2,8.8-1.7c1.3-1,2.7-0.6,4,0.5c2.8,2.7,5.7,5.2,8.5,7.9
	c1.7,1.6,3.4,3,5.9,2.7c1.3-0.1,2.4,0.4,2.9,1.7c0.9,2,2.6,2.5,4.6,2.5c0.9,0,1.9-0.1,2.8,0c2.1,0.1,3,1.3,2.2,3.2
	c-1,2.2-1,4.4-1.1,6.6c0,1.5,0.3,2.9,1,4.2c0.9,1.6,1.8,3.3,2.8,4.9c0.4,0.7,1,1.2,1.6,1.7c0.6,0.5,1.4,0.9,2,1.4
	c1.4,1.2,1.7,2.2,0.9,3.9c-1.1,2.3-2.2,4.5-3.2,6.8c-1.7,3.6,0,6.1,4,5.6c3.6-0.4,7.1-1,10.7-1.5c0.4-0.1,0.8-0.2,1.2-0.3
	c1.9-0.4,3.4,0.1,4.5,1.8c0.2,0.3,0.4,0.7,0.7,1c1.8,2.1,4.6,2.3,6.2,0.1c1.2-1.7,2.7-2.4,4.6-2.7c3.3-0.5,6.6-1.2,9.9-1.6
	c1.8-0.2,3-0.9,3.9-2.3c1.2-1.8,2.1-3.7,1.8-6c-0.2-1-0.8-1.7-1.8-2c-1.1-0.4-2.3-0.7-3.4-1.2c-1.3-0.6-1.7-1.7-1.1-3
	c0.9-2.1,1.7-4.2,2.7-6.2c1-2,0.6-3.6-0.9-5.1c-0.6-0.6-1.2-1.1-1.7-1.7c-0.2-0.4-0.3-1.1-0.1-1.5c0.2-0.4,0.8-0.8,1.2-0.8
	c2.1,0.2,4.2,0.6,6.3,1c3.1,0.6,6.3,1.3,9.4,2c2.3,0.5,4.7,1.1,6.9,1.9c0.7,0.2,1.4,0.8,1.8,1.5c1.2,1.9,2.8,3.2,4.8,4
	c2.3,0.9,3.2,2.7,3.2,5c-0.2,5.3-0.4,10.7-0.5,16c-0.1,6.1-0.1,12.3-0.1,18.4c0,1.6,0.5,3.2,1.6,4.4c1.3,1.5,1.6,3.3,1.6,5.2
	c0,1.3-0.5,2.2-1.7,2.3c-1.8,0.2-3.2,1-4.7,1.9c-1.2,0.8-2.6,1.5-4,1.7c-4.4,0.6-6.2,3.6-7.2,7.5c-0.6,2.3-1.2,4.6-2,6.9
	c-0.9,2.8-2.9,4.7-5.4,6.2c-1.7,1-3.5,1.9-5.3,2.8c-2.4,1.2-4.7,2.6-6.5,4.6c-1.7,1.9-2.7,3.9-2.7,6.5c0,0.7,0,1.3-0.1,2
	c-0.1,3.3-1.1,6.2-3.9,8.4c-1,0.8-1.9,1.9-2.6,3c-1.2,1.7-1.7,3.5-1.3,5.7c0.3,1.7,0.4,3.4,0.3,5.2c0,1.5-0.8,2.8-2.2,3.6
	c-1.2,0.7-2.3,1.3-3.5,2c-2.3,1.4-3.6,3.5-4,6.2c-0.4,2.8-0.6,5.5,1.1,8.1c1.1,1.6,0.7,2.5-0.6,3.9c-1,1.1-2.3,1.7-3.7,2.2
	c-3.3,1.2-5.7,3.5-6.9,6.8c-1.8,4.8-4.3,9.2-6.8,13.5c-1.4,2.3-2.6,4.7-4,6.9c-1.3,2.2-1.4,4.5-1.3,7c0,1,0.5,1.8,1.4,2.3
	c0.7,0.5,1.4,0.8,2,1.4c1,0.8,1.4,1.9,1.3,3.2c0,0.3,0,0.6-0.1,0.8c-1.8,3.8-1.6,8.1-3,12c-0.9,2.5-1,4.9-0.1,7.4
	c0.4,1.3,0.7,2.6,1,3.9c0.5,2.7,2.1,4.9,3.5,7.1c1.1,1.7,2.8,2.9,4.9,3.2c3.3,0.5,5.4,2.7,6.8,5.6c1.2,2.5,2.5,5,3.8,7.5
	c0.9,1.6,1.3,3.2,1.3,5c0,0.9,0,1.9,0,2.8c0,3.1,1.7,4.9,4.4,6c2.2,0.9,4.5,1.7,6.7,2.6c1.3,0.5,1.6,1.2,1.2,2.5
	c-0.6,2.3-1.3,4.6-1.9,6.9c-0.7,2.4-0.5,4.8,0.9,6.9c1.1,1.6,2.4,2.8,4.4,3.2c0.9,0.2,1.9,0.3,2.7,0.7c2.2,0.9,2.8,2.9,1.5,4.9
	c-0.3,0.6-0.8,1.1-1.3,1.5c-2.2,2.4-3.9,5-4.7,8.2c-0.6,2.3-1.7,4.5-2.6,6.7c-0.3,0.7-0.9,1.3-1.4,2c-0.6,0.7-1.3,1.4-1.9,2.1
	c-1.6,2-1.6,3.3-0.1,5.4c1.9,2.5,1.9,3.1-0.1,5.5c-1.7,2-3.6,3.9-6.1,5.1c-1.9,0.9-3.6,1-5.3-0.3c-0.4-0.3-0.9-0.5-1.3-0.9
	c-1.4-1.2-3.1-1.5-4.8-1.9c-2.4-0.5-4.5,0-6.3,1.7c-1.4,1.3-2.7,2.6-3.9,4c-1.1,1.2-2.5,1.5-4,0.9c-2-0.8-4-1.6-5.9-2.4
	c-1-0.4-1.9-0.9-3-1.1c-7.5-1.8-13.6,1-17.3,7.8c-0.4,0.8-0.9,1.7-1.4,2.4c-0.7,1-1.7,1.2-2.8,0.6c-1.9-0.9-3.8-1.8-5.7-2.8
	c-2.2-1.1-4.4-0.9-6.6,0.1c-2.5,1.1-4.7,2.4-6.8,4.1c-1.4,1.2-2.9,2.3-4.5,3.3c-0.9,0.6-1.9,1-2.9,1.4c-2.4,1-4.4-0.9-3.9-3.3
	c0.4-2.2,0.4-4.5,0.6-6.8c0.3-3.9-1-7.3-3-10.6c-0.5-0.9-1-1.9-1.5-2.8c-3-5.3-5.9-10.7-9-16c-2.2-3.7-5.6-5.9-9.6-7.5
	c-2.6-1-5.2-2.1-7.7-3.2c-3.4-1.4-5-0.9-7.2,2c-0.3,0.4-0.5,1-0.8,1.3c-0.5,0.4-1.1,0.8-1.7,0.8c-0.8,0-1.5-0.8-1.5-1.6
	c-0.1-0.8,0-1.6,0.3-2.3c0.5-0.9,1.2-1.8,1.9-2.5c1.6-1.7,1.9-3.7,1.4-5.9c-0.9-4.3-3.2-7.9-6.1-11.1c-1.8-2-3.8-3.8-5.6-5.7
	c-1.1-1.1-2.4-1.6-3.9-1.6c-4.3-0.1-8.5,0-12.6,1.6c-0.6,0.2-1.2,0.5-1.9,0.6c-2.4,0.5-4.7,0.3-6.9-1c-3.8-2.4-6.9-5.4-9.5-9.1
	c-2.5-3.6-5-7.3-7.4-10.9c-0.3-0.4-0.6-0.9-0.9-1.3c-2.1-3.1-5-5.1-8.7-5.9c-2.5-0.5-4.8-1.4-7.1-2.6c-1.7-0.9-3.2-1.9-4.6-3.2
	c-3.2-3-6.4-6.1-9.5-9.1c-0.3-0.3-0.6-0.6-0.8-0.9c-0.9-1.2-0.7-3,0.4-4c0.5-0.5,1.1-0.8,1.6-1.2c1.6-1.2,2-2.7,1.5-4.6
	c-0.3-1-0.6-2-0.9-3.1c-0.8-3.2-0.6-4.1,2.2-6.1c3.8-2.8,7.6-5.4,11.3-8.2c1.5-1.1,3-2.2,4.4-3.5c2-1.8,2-2.8,0.6-5.3
	C662.2,750.6,661.9,750.1,661.5,749.6z"/>
<path id="XMLID_15_" class="st0" d="M405.3,426.2c0.1,0.8,0.3,1.7,0.4,2.5c0,4,0,8,0,12c0,3,0.6,5.8,1.9,8.5c1.7,3.5,5.2,5.6,9,5.4
	c0.4,0,0.8-0.1,1.2-0.1c6.1-0.6,6.2-0.7,9.8-5.6c1-1.4,2-2.9,3.1-4.2c0.9-1,2.5-0.8,2.9,0.5c0.3,1,0.3,2.1,0.3,3.1
	c-0.1,1.2-0.5,2.4-0.6,3.5c-0.2,2.6,0.8,4,3.3,4.8c2.5,0.8,5.1,1.5,7.6,2.3c1.7,0.6,2,1.3,1.9,3c-0.5,5.6-0.1,6.3,5.3,7.2
	c2.6,0.4,4.3,1.9,5.8,3.9c0.9,1.3,1.8,2.6,2.6,4c1.2,2,2.8,3,5.1,3.3c2.1,0.2,2.7,1,2.8,3.1c0,1.1-0.2,2.2,0,3.2
	c0.1,0.9,0.5,1.8,1.1,2.5c0.9,1.2,2.4,1.4,3.6,0.6c1.3-0.9,2.6-2,3.6-3.2c3.5-4.3,8.3-5,13.4-4.7c0.9,0.1,1.8,0.5,2.6,1
	c2.1,1.5,4.5,1.6,6.9,1.4c1.1-0.1,2.1-0.3,3.2-0.3c1.2,0,2.1,0.7,2.1,1.9c0.1,1.9,0,3.7,0,5.6c0,4.6,1.4,5.7,5.6,3.9
	c1.8-0.8,3.3-0.8,4.9,0.2c3.4,2.2,6.9,1.4,10.3-0.2c0.7-0.3,1.4-0.8,2.1-1.1c1.1-0.4,2.3,0.4,2.1,1.6c-0.4,2.5-0.9,5-1.5,7.4
	c-0.2,1.2-0.7,2.3-0.8,3.5c-0.2,2.3,0.9,3.6,3.2,3.7c0.9,0.1,1.9-0.1,2.8,0c1.9,0.2,3.2,1.4,3.4,3.3c0.3,2.3-0.6,4.2-2.3,5.6
	c-0.5,0.4-1.1,0.7-1.7,1.1c-1.1,0.7-1.7,1.7-1.6,3c0.2,1.7,0.3,3.4,0.1,5.2c-0.1,1.7,1.2,2.9,2.6,3.7c1.6,1,3.2,2,4.8,2.9
	c2.2,1.2,2.2,3.5,0.4,4.9c-0.9,0.7-1.9,1.5-3,2c-2.4,1.3-2.3,3.8-1,5.5c0.5,0.6,1,1.3,1.6,1.8c1.6,1.4,1.5,3,0.4,4.7
	c-0.6,1-1.3,2-1.9,3c-1.6,2.4-2.2,5-1.6,8c0.4,1.9,0.6,4,0.6,5.9c0,2.6-0.4,3-2.8,3.5c-2.2,0.5-4.4,0.9-6.6,1.4
	c-1.2,0.3-2.1,0-2.9-0.9c-0.8-0.9-1.5-1.9-2.3-2.7c-1.8-1.9-3.9-2.6-6.5-1.9c-1.3,0.4-2.6,0.7-3.9,0.8c-2,0.2-3.5,1.1-4.3,3.1
	c-0.4,1.1-1.2,2-1.8,3.1c-1,1.8-2.5,2.3-4.4,2c-2.6-0.3-5.3-0.6-7.9-1c-2.6-0.4-4,0.4-5,2.8c-0.2,0.6-0.3,1.3-0.6,1.9
	c-0.3,0.9-0.9,1.7-1.9,1.9c-2.5,0.7-4.2,2.2-5.3,4.5c-0.8,1.6-2.1,2.3-3.9,2.4c-0.4,0-0.8,0.1-1.2,0.1c-3-0.3-5.4,1-7.7,2.8
	c-1.8,1.4-3.7,2.7-5.4,4.1c-3.8,3-4,4.5-1.2,8.3c2,2.8,4.2,5.5,7.5,7c1.8,0.8,3.4,2.1,5.2,3c2.2,1.2,5.3,1.5,7.7-1.1
	c0.7-0.8,1.5-1.5,2.3-2.2c0.9-0.7,2-0.9,3-0.4c1.1,0.5,1.4,1.6,1.2,2.7c-0.2,1.3-0.5,2.6-0.9,3.9c-0.9,2.6-1.4,5.1-0.8,7.8
	c0.4,1.8-0.3,3.1-1.6,4.2c-1.3,1.1-2.7,2.2-4,3.3c-2.3,2-2.8,3.7-1.4,6.3c1.5,2.8,3.2,5.5,4.8,8.3c0.5,0.9,0.9,1.9,1.6,2.8
	c1.8,2.4,2.2,4.6,0.3,7.2c-0.6,0.9-0.6,2.3-0.6,3.5c0,5.6,0,11.2,0.1,16.8c0,1.5,0.2,2.9,0.5,4.4c0.3,1.9,1.1,3.6,2.8,4.6
	c1.9,1.2,2.5,3.1,2.5,5.1c-0.1,2,0.1,4,0.7,5.9c0.3,0.9,0.4,1.9,0.3,2.8c-0.4,5.2,1.7,9.6,4.1,14c0.9,1.6,1.8,3.3,2.5,5
	c1,2.2,0,5.9-2,7.1c-0.5,0.3-1.3,0.3-1.9,0.1c-1.3-0.3-2.6-0.7-3.9-1c-4.5-1.3-9-2.6-13.4-3.8c-0.4-0.1-0.8-0.3-1.1-0.4
	c-4.8-1.3-9.5-2.6-14.3-3.8c-1-0.3-2.1-0.3-3.1-0.1c-2.9,0.3-5.8,0.8-8.7,1.2c-1.6,0.2-3.2,0.4-4.7,0.8c-3.3,0.7-6.3,0.3-9.3-1.3
	c-1.6-0.9-3.3-1.7-5-2.6c-2.3-1.2-3.6-2.8-3.7-5.6c0-2.2-0.6-4.5-1.2-6.7c-1-3.5,0-6.2,2.3-8.8c3-3.3,6.6-5.8,10.4-8
	c1.5-0.9,3-1.7,4.6-2.5c1.7-0.9,2.5-2.3,2.6-4.2c0.1-1.9-0.1-3.7-1.1-5.4c-2-3.5-3.2-7.3-4-11.2c-0.7-3.4-1.7-6.7-2.5-10.1
	c-0.5-1.9-1.7-3-3.4-3.6c-1.8-0.6-3.7-0.7-5.5-0.3c-0.5,0.1-1,0.2-1.6,0.3c-3.5,0.7-4.2,0-3.2-3.3c1.6-5.1,3.2-10.2,4.6-15.3
	c0.7-2.3,1.1-4.7,1.6-7c0.6-3.3,2.6-5.8,5-7.9c1.5-1.3,2.9-2.7,4.5-3.9c2.8-2.2,3.4-5.3,3.7-8.5c0.2-2.7-1-5-3-6.7
	c-1.8-1.5-3.8-3-5.8-4.2c-4.2-2.6-7.6-2.1-11.2,1.4c-0.4,0.4-0.8,0.7-1.2,1.1c-0.1,0.1-0.2,0-0.5,0.1c-0.2-0.2-0.6-0.4-0.8-0.7
	c-1-1.9-2-3.8-2.8-5.7c-2.2-5.6-6.3-9.5-11.3-12.5c-2.3-1.4-4.2-3.2-5.9-5.2c-2.5-3.1-5.1-6.2-9-7.7c-1.2-0.5-2.5-0.8-3.8-0.9
	c-5.2-0.3-6.1,0-12.3,2.7c-2.7,1.2-5.3,2.4-8,3.6c-3.6,1.5-6.9,1.5-10.2-1c-1.6-1.2-3.3-2.3-5-3.2c-3-1.7-6.2-3-9.8-3.2
	c-2.4-0.1-4.7-0.7-7.1-1c-0.7-0.1-1.4-0.2-2,0c-2.6,0.8-5.3,0.6-7.9,0.7c-4.6,0.1-8.3,1.8-10.7,5.8c-1.7,2.7-3.6,5.3-4.6,8.4
	c-0.2,0.5-0.4,1-0.7,1.4c-0.7,1.1-2.2,1.4-3.2,0.6c-2-1.8-3.9-3.6-4.1-6.6c-0.1-2.2-0.7-4.5-1-6.7c-1-6-0.7-12-0.6-18
	c0.1-5.6-0.3-11.2-1.7-16.6c-0.1-0.3-0.1-0.5-0.1-0.8c0.3-5.4-2.6-9.7-5.2-14c-1.7-2.8-4.4-4.6-7.1-6.4c-3.8-2.5-8-3.6-12.5-3.6
	c-3.1,0-6.1,0-9.2,0c-0.9,0-1.9,0-2.8-0.1c-1.5-0.2-2.2-0.9-2.2-2.3c0-1.1,0.2-2.1,0.2-3.2c0.3-4.4-1.5-7-5.8-7.7
	c-2.5-0.4-5-0.2-7.6-0.1c-0.7,0-1.5,0.5-2.2,1c-1.1,0.7-2.2,1.5-3.1,2.5c-2.6,2.9-6,4.4-9.5,5.6c-2,0.7-4,1.4-6.1,2.1
	c-2.4,0.8-4.7,0.6-7-0.4c-3.9-1.7-7.6-3.9-11.2-6.1c-2.9-1.7-4.9-4.4-6.5-7.4c-0.4-0.7-0.6-1.5-0.6-2.3c-0.3-3.6-0.6-7.2-0.7-10.8
	c-0.1-2.3-0.3-4.5-1.2-6.6c-0.9-2.5-1.5-5.1-2.3-7.6c-2.1-6.5-3.8-13-5.1-19.7c-0.2-0.9,0.2-2.1,0.6-3c0.6-1.5,1.4-2.9,2.1-4.3
	c0.6-1.1,0.9-2.3,0.4-3.5c-1.4-3.5-1.8-7.2-3.4-10.6c-1.4-2.8-3.1-4.9-6.3-5.5c-3.3-0.6-5.5-2.5-6.4-5.9c-0.4-1.4-1.3-2.6-1.8-4
	c-0.8-2.1-0.4-3.2,1.6-4.2c1.3-0.7,2.6-1.3,3.9-2c1.8-0.9,3.6-0.9,5.3,0.1c1.5,0.9,3.1,1.7,4.5,2.7c1.9,1.4,3.9,1.6,6.1,1.1
	c1.6-0.4,3.2-0.5,4.7-0.8c1.2-0.3,2,0.1,2.8,1c1.8,1.9,3.1,4,2.7,6.8c-0.3,2,0.6,3.7,2.1,4.9c2,1.7,4.1,3.4,6.6,4.4
	c1.2,0.5,2.5,0.8,3.8,1c2.4,0.4,4.1-0.3,5.1-2.7c0.9-2.1,2.4-3.8,4.1-5.4c1.7-1.6,3.5-3.3,5.1-5.1c2.9-3.2,6.5-5.5,9.8-8.2
	c1.3-1.1,2.9-1.4,4.5-0.7c1,0.4,2,0.7,3,1.1c2.4,1,4.9,1.2,7.4,0.3c0.5-0.2,1-0.3,1.5-0.5c1.5-0.3,2.4,0.2,2.6,1.7
	c0.2,1.7,0.3,3.5,0.6,5.2c0.5,3.2,1.5,4.1,4.7,4.2c3.5,0.1,6.9,0.1,10.4,0c2.5,0,4.7,0.5,6.7,2.1c1.1,0.9,2.4,1.6,3.7,2.4
	c2.6,1.6,4.5,1.2,6-1.5c2.4-4.6,4.8-9.2,7.2-13.8c0.8-1.5,1.7-3,2.6-4.5c0.9-1.5,3-2.2,4.3-0.5c1.8,2.4,4.1,2.1,6.5,1.2
	c0.9-0.3,1.7-0.9,2.5-1.3c2.5-1.2,3.3-0.9,4.2,1.6c0.6,1.8,1.3,3.5,1.9,5.3c0.6,1.9,2,2.8,3.9,2.8c1.9,0,3.7,0,5.6-0.2
	c1.8-0.2,3.4,0,4.8,1.3c1.5,1.4,3.3,1.6,5.2,1.3c2-0.3,3.9-0.8,5.9-1.2c0.7-0.1,1.3-0.4,1.9-0.5c2.4-0.3,3.9,1.3,3.5,3.6
	c-0.2,0.9-0.5,1.8-0.8,2.7c-0.7,2.1-0.5,4.2,0.1,6.3c0.9,2.9,2.4,5.4,4.5,7.5c2.1,2.2,4.8,3.3,7.9,3.5c1.7,0.1,3.5,0.1,5.2,0.1
	c2.4,0,4.8,0,7.1,0.7c2.8,0.8,5.6,0.4,7.9-1.6c1.6-1.4,3.4-2,5.5-1.3c1.1,0.4,2.1,0,3.1-0.3c1.1-0.3,2.4-0.6,3.5-0.4
	c2.4,0.5,4.5,0.1,6.4-1.4C404.4,426.1,404.7,426.2,405.3,426.2z"/>
<path id="XMLID_14_" class="st0" d="M931.2,642.5c-1.1-0.6-1.8-1.1-2.5-1.4c-3.1-1.3-6.2-1.7-9,0.8c-0.5,0.4-1.1,0.8-1.7,1.1
	c-3.6,1.5-5,0.6-4.9-3.2c0-2.4,0-4.8,0-7.2c0-1.6,0.1-3.2,1.4-4.4c0.3-0.3,0.5-0.6,0.7-1c1-1.8,0.6-5.1-2.3-5.9
	c-0.4-0.1-0.8-0.2-1.2-0.3c-1.8-0.6-2.7-1.8-2.6-3.6c0-2.8,0.2-5.6,0.3-8.4c0.1-2,0.4-4,0.5-6c0.1-3.6,0-7.2,0.1-10.8
	c0.1-2.3,0.3-4.5,0.5-6.8c0-0.5,0.1-1.1,0.2-1.6c0.5-3.2-0.9-5.5-3.8-6.6c-2.6-1-4.6-2.7-5.9-5.1c-0.8-1.4-2.1-2-3.6-2.3
	c-5.1-1-10.2-2.1-15.3-3.2c-3.5-0.8-7-1.6-10.5-2.4c-0.9-0.2-1.8-0.5-2.8-0.5c-3.4-0.1-4.8,0.5-5.7,3.7c-0.4,1.7-1.1,3.3-1.6,4.9
	c-0.4,1.6-0.3,3.2,1.1,4.4c2.2,1.9,2.1,4.1,1,6.5c-0.4,1-0.9,1.9-1.3,2.9c-0.9,2.1-1.7,4.2-1.7,6.5c0.1,2.5-1.1,3.3-3.4,3.5
	c-2,0.2-4,0.3-6-0.1c-3.3-0.5-6.6-0.9-9.9,0c-0.5,0.1-1.1,0.1-1.6,0c-1-0.1-1.7-1-1.3-2c0.5-1.2,1-2.5,1.7-3.6
	c3.2-5.6,1-7.2-3.6-8.4c-4-1-5-4.1-6.2-7.1c-0.3-0.6,0-1.6,0.3-2.3c0.9-2.2,2-4.4,3-6.5c0.3-0.7,0.7-1.5,0.9-2.2
	c0.6-2.4-0.7-4.3-3.2-4.5c-1.9-0.2-3.7-0.1-5.6-0.1c-1.8,0-3.1-0.5-3.5-2.5c-0.3-2-1.8-2.5-3.6-2.4c-1.1,0-2.1,0.1-3.2,0.3
	c-1.9,0.3-3.4-0.2-4.7-1.5c-3.4-3.2-6.9-6.2-10.3-9.5c-2-2-4.1-2.3-6.5-1.3c-0.9,0.4-1.6,0.9-2.5,1.3c-0.8,0.4-1.6,0.9-2.5,1.2
	c-1.4,0.4-2.4,0.1-2.9-1.3c-0.7-1.9-1.8-3.2-3.6-3.9c-0.7-0.3-1.3-1.3-1.7-2.1c-0.5-0.9-0.5-2.1-0.9-3.1c-1.1-2.6-3.3-3.5-5.8-2.3
	c-1.4,0.7-2.7,1.7-4.1,2.5c-3.9,2.6-3.9,2.6-7.5-0.4c-0.9-0.8-2-1.3-2.9-2.2c-2.3-2.3-5.2-2.5-8.2-2.3c-3.9,0.3-6.4,4.8-4.7,8.3
	c0.7,1.3,1.6,2.5,2.2,3.8c1,1.9,0.7,3.1-0.8,4.7c-0.4,0.4-0.8,0.7-1.2,1.1c-1.4,1.5-2.9,1.7-4.7,0.7c-1.3-0.7-2.7-1.2-4.1-1.5
	c-2.8-0.6-5.5-0.4-8,1.5c-1.8,1.4-3.7,2.6-5.6,3.9c-0.9,0.6-1.8,1.2-2.9,0.5c-1-0.6-1.1-1.7-1.1-2.8c0-0.8,0.2-1.6,0.2-2.4
	c0-2.5-1.1-4.1-3.4-4.8c-1.4-0.4-2.9-0.6-4.3-1c-1.8-0.5-3.6-1.1-5.2-1.9c-1.5-0.7-2-2.1-1.4-3.7c0.4-1.2,1-2.5,1.7-3.6
	c1-1.8,1.1-3.5,0.2-5.3c-1.1-2.4-2.3-4.8-3.3-7.3c-1.4-3.8-4.4-6.3-7.3-8.9c-1.2-1.1-2.7-1.2-4.1-0.8c-1,0.3-2,0.8-3,1.1
	c-1.9,0.7-2.8,0.3-2.9-1.9c-0.1-2.5-0.8-4-3.7-4.1c-1.5,0-1.8-1.3-1-2.7c0.4-0.7,0.9-1.3,1.2-2.1c0.9-2.1-0.3-4.2-2.6-4.4
	c-0.9-0.1-1.9,0.1-2.7,0.3c-0.8,0.2-1.4,0.8-2.1,1.1c-1.9,0.7-3.1,0.2-3.8-1.7c-0.6-1.6-1.3-3.2-1.9-4.8c-0.7-1.8-2-2.6-4-2.6
	c-5.2-0.1-5.1-0.2-6.7-5.3c-1.1-3.6-2.4-7.1-3.6-10.6c-0.2-0.5-0.5-1-0.5-1.5c-0.5-3.8-2.7-6.6-5.5-9c-2.2-2-4.2-4.1-6.4-6
	c-1.4-1.3-1.7-2.7-1.6-4.6c0.3-4,2.2-7.3,4.1-10.7c1.1-2,1.6-3.9,1.5-6.1c-0.1-1.2,0-2.4-0.1-3.6c-0.2-2.5,0.2-4.7,2.2-6.5
	c1.9-1.7,1.2-3.9,0.3-5.9c-0.5-1.1-1.4-2-2-3c-0.6-1-0.5-2,0.2-2.5c0.8-0.7,2-0.6,2.9,0.3c0.5,0.5,0.8,1,1.2,1.6
	c0.9,1.3,1.9,2.6,2.8,3.9c1.8,2.6,4.5,3.8,7.3,4.5c1.1,0.3,2.4,0.1,3.5-0.2c2.7-0.7,5.2-0.5,7.8,0.6c3.2,1.3,6.6,2.2,9.9,3.1
	c4.6,1.2,8.4-1,10-5.6c0.2-0.5,0.2-1.1,0.3-1.6c0.4-1.4,1.2-2,2.6-1.8c2.8,0.4,5.5,0.8,8.3,1.4c2,0.4,3.7,0.3,5.3-0.9
	c1-0.7,2.1-1.3,3-2c1.4-1,2.6-0.9,4.1-0.1c1.5,0.8,3.1,1.6,4.7,2.1c2.1,0.7,3.3,0.1,4.3-1.8c0.3-0.5,0.5-0.9,0.7-1.4
	c1.2-3.4,3.9-5.4,7-6.7c1.8-0.8,3.8-1.3,5.7-1.8c1.6-0.4,2.5,0,3.3,1.5c0.8,1.5,1.4,3.2,2.3,4.7c0.4,0.7,0.8,1.5,1.5,1.8
	c4.3,2.3,8.9,4.3,13.7,2.7c3.7-1.3,7.3-2.2,11.2-2.3c2.4-0.1,4.1-1.9,5.9-3.2c1.1-0.8,1.9-1.9,2.9-2.7c1.6-1.4,2.6-3,2.4-5.2
	c-0.1-2.1,1.1-3.1,3-3.6c4.9-1.4,9.6-3.1,14.5-4.5c2.4-0.7,4.4-1.8,6.1-3.5c1.7-1.7,3.4-3.4,5.1-5.1c0.8-0.7,1.5-1.5,2.4-2.1
	c0.9-0.7,1.9-0.9,3-0.3c0.5,0.2,0.9,0.5,1.5,0.7c3.1,0.9,3.3,2.6,2.6,5.2c-0.2,0.9-0.7,1.7-1,2.6c-0.4,1.4-0.8,2.8-1.1,4.3
	c-0.3,1.4,0.3,2.6,1.4,3.5c2.7,2.2,5.5,3.8,9.1,3.6c2.2-0.1,4.2,0.4,6,1.6c1.5,1,3.2,1.3,5,0.7c2.1-0.8,3.6,0,4.9,1.7
	c1.8,2.4,3.7,4.9,5.5,7.4c0.6,0.9,1.3,1.7,2,2.5c1.1,1.4,2.5,1.9,4.3,1.6c1.6-0.2,3.2-0.2,4.8-0.6c2.1-0.5,3.9,0,5.8,1
	c0.2,0.1,0.5,0.2,0.7,0.4c3.8,1.9,6.8,1.3,9.2-2.4c2-3.1,4.6-5.9,5.7-9.6c0.3-1.1,1.3-1.7,2.5-1.7c3.6,0,7.2,0,10.8,0
	c1.8,0,3.2,1.1,4.5,2.3c1,1,1.5,2.1,1.3,3.6c-0.2,2-0.3,4,0,6c0.3,2.8,1.4,3.6,4.2,3.8c3.9,0.3,7.8,0.1,11.4-1.6
	c2.3-1.1,4.2-0.7,5.7,1.1c1.7,1.9,3.4,3.8,4.8,5.9c3.3,4.8,6.4,9.8,9.6,14.7c0.9,1.3,1.3,2.7,0.6,4.1c-1,2.2-0.3,4.2,0.8,6.1
	c0.3,0.5,0.6,0.9,0.8,1.4c2.4,4.8,6.5,6.3,11.5,6.6c2.9,0.2,5.9,0.4,8.8,0.7c1.8,0.2,2.2,1.2,1,2.7c-1.1,1.3-2.2,2.6-3.6,3.7
	c-3.2,2.6-6.5,5.1-9.7,7.7c-0.8,0.7-1.5,1.5-2.1,2.4c-1.3,1.8-2.5,3.8-3.8,5.6c-1.4,2-1.6,4.1-0.1,5.9c1.4,1.7,1.8,3.5,1.5,5.6
	c-0.3,2.2,0.6,4,2,5.8c1.9,2.3,3.5,5.1,4.8,7.8c1.8,3.6,4.6,5,8.4,4.7c2.4-0.2,4.8-0.6,7-1.7c1.7-0.8,3.2-0.9,4.9,0.1
	c1,0.6,2.2,0.8,3.4,1.1c2.2,0.6,4.4,1.2,6.5,1.8c1.6,0.4,2.3,1.4,2.4,3.1c0.4,5.5,1.9,10.7,5.9,14.9c1.1,1.2,1.5,2.5,1.2,4
	c-0.7,3.9-1,7.9-2.4,11.7c-1.4,3.6-1.9,7.3-0.5,11c0.8,2.2,2.1,4.3,3.2,6.4c1.9,3.4,3.8,6.7,5.7,10c0.7,1.3,0.6,2-0.5,2.7
	c-2.9,2-5.9,3.2-9.3,1.4c-2.2-1.1-4.7-1-7.1-0.8c-2.4,0.3-4.3,1.7-5.8,3.4c-3,3.5-5.1,7.5-4.9,12.3c0.1,3.7-1.2,5.2-4.9,6.2
	c-3.3,0.9-6.7,1.9-9.9,3.1c-2.5,0.9-4.7,2.3-6.3,4.7c-1.1,1.6-2.9,2.8-4.3,4.1c-1.1,1-2.3,1.8-3.3,2.9c-2.8,3-3,5.6-0.6,9
	c0.2,0.3,0.5,0.6,0.8,0.9c1.6,2,2,4.3,1.5,6.8c-0.4,2-1.1,2.8-3.2,2.9c-1.8,0.1-3.4,0.3-4.9,1.5c-1.1,0.9-2,1.7-2.5,3.1
	C932.1,641,931.7,641.5,931.2,642.5z"/>
<path id="XMLID_13_" class="st0" d="M473.1,610.1c-2.6-0.8-4.9-2.2-7.2-3.9c-1-0.7-1.1-2-0.2-2.8c2.7-2.3,5.2-5.1,9.3-4.6
	c0.4,0,0.8,0,1.2,0c2.7,0.3,4.7-0.7,5.9-3.2c0.7-1.5,1.8-2.2,3.3-2.6c2.4-0.5,4.1-1.7,4.6-4.3c0.4-1.8,1.8-2.6,3.6-2.5
	c1.5,0,2.9,0.3,4.4,0.4c1.6,0.1,3.2,0.3,4.8,0.3c1.7,0,3-0.7,3.8-2.4c0.7-1.4,1.6-2.8,2.4-4.1c0.3-0.6,0.7-1.1,1.2-1.6
	c1.2-1.2,2.6-1.3,3.9-0.2c0.7,0.6,1.3,1.3,1.9,2c0.5,0.6,1,1.3,1.6,1.8c1.1,1.1,2.4,1.4,4,1.1c4.3-0.8,8.7-1.5,13-2.2
	c1.4-0.3,2.8-0.7,4.2-1.2c1.3-0.5,2.1-1.7,2-3.2c-0.1-2.4-0.3-4.8-0.5-7.2c-0.1-1.3-0.3-2.6-0.4-4c-0.2-2.2,0.4-4.2,1.6-6.1
	c1.1-1.7,2-3.4,3.2-5.1c1.3-1.8,1.6-3.7,0.2-5.5c-1.4-1.8-1.1-3.2,0-5.1c1.3-2,2.1-4.3,3-6.5c0.9-2.3,0.5-3.7-1.5-5.3
	c-0.9-0.7-2-1.3-3-2c-1-0.7-2-1.3-2.9-2.1c-1.2-1-1.2-1.7-0.6-3.2c1.1-2.7,2.2-5.4,3.3-8.1c0.9-2.2,1.2-4.4-0.1-6.5
	c-0.7-1.2-0.9-2.5-0.6-3.9c0.1-0.5,0.2-1.1,0.2-1.6c-0.1-2.1-1.5-3.5-3.6-3.4c-0.7,0-1.3,0.3-2,0.2c-0.7,0-1.3-0.5-1.3-1.2
	c-0.1-0.8,0-1.6,0.1-2.4c0.6-2.5,1.2-4.9,1.8-7.4c0.5-2,0.7-3.9,0.4-5.9c-0.5-3.4,2-5.6,5.3-4.7c0.6,0.2,1.2,0.5,1.9,0.7
	c1.3,0.4,2.6,0.8,3.8,1.3c3.7,1.6,7.1,0.2,10.5-0.9c1.5-0.5,2.2-2.2,1.9-4c-0.5-2.6-1.1-5.2-1.7-7.8c-0.1-0.6-0.3-1.3-0.4-1.9
	c-0.1-1,0.9-1.8,1.8-1.6c0.8,0.2,1.5,0.6,2.2,1c0.7,0.4,1.2,1,1.9,1.5c2.3,1.5,3.8,1.1,5.3-1.2c0.2-0.3,0.4-0.7,0.6-1
	c0.5-0.7,1.6-0.6,2.1,0.1c0.4,0.7,0.8,1.4,1.2,2.1c1.7,3,2.8,3.3,5.8,2c1.3-0.6,2.7-1.1,4.1-1.6c1.2-0.5,2.4-0.4,3.3,0.7
	c0.1,0.1,0.2,0.2,0.3,0.3c3.1,2.5,5.5,1.7,6.1-2.3c0.3-2.1,1.3-3,3.2-3.5c5.8-1.5,11.6-3.1,17.4-4.7c1.8-0.5,3.6-1,5.3-1.7
	c2.1-0.9,4.1-1.9,6.5-1.8c1.1,0.1,2-0.6,2.7-1.5c0.9-1.2,1.8-2.4,2.7-3.5c0.4-0.5,0.9-1,1.4-1.4c1.2-0.7,2.9,0,3.1,1.4
	c0.2,1.2,0.1,2.4,0,3.6c-0.2,2.4,0.5,4.4,2.4,6c2.3,2,4.3,4.4,6.6,6.4c2.7,2.4,4.3,5.4,5.4,8.7c0.8,2.3,1.6,4.5,2.5,6.7
	c1,2.3,1,4.4-1.1,6.1c-0.3,0.3-0.6,0.6-0.8,0.9c-1.2,1.7-0.7,3.8,1.1,4.8c1.8,1,3.8,1.3,5.8,1.4c1.6,0,3.2,0,4.8,0
	c1.6,0,2.8,0.7,3.5,2.2c0.6,1.3,1.3,2.7,1.7,4c0.7,2.1,2,3.5,4.2,3.8c2.1,0.3,3.2,1.4,3.9,3.4c0.4,1.3,1.4,2.7,2.5,3.5
	c1.7,1.3,2.8,2.8,3.8,4.5c0.2,0.3,0.4,0.7,0.6,1c1.8,2.6,3.6,3.1,6.6,1.9c0.7-0.3,1.4-0.7,2.1-1.1c1.7-0.9,3.1-0.5,4.4,0.8
	c1.7,1.7,3,3.7,3.8,6c1.7,4.6,1.7,4.6-0.4,8.9c-0.3,0.6-0.6,1.2-0.9,1.8c-0.5,1-0.6,2.1-0.1,3.1c0.8,1.5,1.6,3.1,2.5,4.5
	c1.3,1.9,3.1,3.2,5.5,3.6c2,0.3,3.8,1.1,5.7,1.7c1.5,0.5,2.4,1.5,2.1,3c-0.7,3.3,1.2,5.6,2.8,8c1.3,2,3.1,2.5,5.2,2
	c1-0.2,2-0.7,2.9-1.3c2.7-1.7,5.3-3.6,8-5.3c2.9-1.9,7.5-1.4,9.9,1.1c0.8,0.8,1,1.9,0.3,2.9c-0.8,1.2-1.7,2.4-2.7,3.5
	c-1.2,1.5-1.5,3.1-0.6,4.8c0.1,0.2,0.2,0.5,0.3,0.7c0.5,1.5,0.4,2.1-0.9,3.1c-2.1,1.6-4.3,3.2-6.4,4.8c-0.8,0.6-1.7,1.3-2.4,2.1
	c-0.5,0.5-0.9,1-1.1,1.6c-0.8,1.8,0.5,4.3,3.1,5.9c1.5,1,3.4,0.8,4.7-0.6c0.6-0.7,1.1-1.5,1.7-2.2c1.1-1.3,2.3-1.2,3.1,0.4
	c1.3,2.5,1.2,5-0.9,7c-2.3,2.4-4.7,4.7-7.4,6.7c-3,2.3-6.2,4.1-9.3,6.2c-1.3,0.9-2.7,1.1-4.2,0.4c-3.3-1.4-6.2-0.6-9.1,1.3
	c-1.8,1.2-3.6,2.3-4.7,4.2c-0.7,1.2-1.8,2-3.2,2.1c-3,0.3-5.1,2.1-7.2,4c-1.9,1.7-1.8,4.9,0.5,6.6c0.9,0.6,1.9,1,2.8,1.5
	c1.5,0.7,2.4,1.8,2.3,3.4c-0.1,2,0.9,3.4,1.8,5.1c1.8,3.4,4.5,5.9,6.8,8.9c0.5,0.6,1.1,1.2,1.5,1.9c1.2,2,0.5,4-1.5,5
	c-1.1,0.5-2.3,0.8-3.3,1.3c-3,1.5-3.5,3.4-1.8,6.1c0.5,0.8,1.1,1.5,1.6,2.3c0.5,0.8,0.1,1.9-0.8,1.9c-3,0.1-5.3,1.8-7.5,3.5
	c-2,1.6-4.3,2-6.7,2.3c-2.5,0.2-5,0.5-7.5,0.8c-1.5,0.1-2.9,0.1-4.4,0.2c-1.9,0.1-3.7,0.3-5.6,0.5c-1.3,0.1-2.7,0.3-4,0.3
	c-2.6-0.2-4.2-1.7-4.6-4.2c-0.3-1.7-0.4-3.4-0.6-5.2c-0.1-1.3-0.6-2.3-1.6-3.1c-1.6-1.4-3.6-1.2-4.8,0.6c-0.4,0.5-0.6,1.2-0.8,1.8
	c-0.9,3.4-1.7,6.7-2.5,10.1c-0.2,0.8-0.3,1.6-0.6,2.3c-0.7,1.8-0.9,3.6,0,5.4c0.5,1.1,0.6,2.4-0.2,3.5c-2.2,3-4.3,6.1-7.3,8.4
	c-0.7-0.2-1.2-0.3-1.7-0.5c-2.9-1-3.7-0.7-5,2.1c-0.9,2.1-2,3.7-4.5,4.1c-2,0.3-2.5,2.2-2.1,3.6c0.3,1,0.8,2,1.5,2.8
	c0.9,1.1,2,2.1,3.1,3.2c1.4,1.3,2.2,2.9,2.6,4.8c0.5,2.6,1.3,5.2,2,7.7c0.8,2.8,2.7,4.3,5.5,4.4c2,0.1,4-0.1,6-0.5
	c2.1-0.4,3.7,0.1,4.9,1.8c1.3,1.8,2.9,3.1,5,3.9c1.6,0.6,2.3,1.9,1.9,3.5c-0.6,2.4-0.8,4.7,0.7,6.9c0.6,0.9,0,2.2-0.9,2.8
	c-0.8,0.5-1.7,0.7-2.6,1.1c-1.2,0.6-2.5,1-3.5,1.8c-1.9,1.4-3.7,3-5.5,4.6c-0.6,0.5-1.1,1.2-1.6,1.8c-0.8,1.1-1,2.3-0.5,3.8
	c1,2.8,0.8,3.4-1.5,5c-3.6,2.6-7.1,5.1-10.8,7.6c-3.3,2.3-4.8,5.3-4.1,9.3c0.4,2.1,0.3,4-0.9,5.8c-0.8,1.3-1.1,2.7-1.3,4.2
	c-0.4,3.3-0.7,3.5-4.1,4.4c-2.8,0.8-5.7,1.6-8.4,2.6c-3.2,1.2-6.5,1.5-9.8,1.2c-2-0.2-2.9-1.1-2.9-3.1c-0.1-3.1-0.1-6.1,0-9.2
	c0.1-3-0.4-5.8-2.1-8.4c-0.4-0.6-0.6-1.2-1-1.8c-0.5-0.9-0.5-1.8,0.1-2.6c3-4,3.7-8.8,5.3-13.3c1.5-4.6,1-9.2-1.3-13.6
	c-0.4-0.7-0.6-1.5-1-2.2c-1.3-2.5-3-4.6-6-5.5c-2.2-0.6-4.3-1.5-6.3-2.6c-4.2-2.3-5.5-5-3.9-8.8c1.9-4.7,3.7-9.4,5.6-14.1
	c1.1-2.7,2.4-5.4,3.3-8.1c0.6-1.7,0.8-3.6,1-5.5c0.2-1.4,0.2-3,0-4.4c-0.4-3,0.7-5.5,1.9-8c0.6-1.3,1.5-2.1,3-2.3
	c0.4,0,0.8,0,1.2-0.1c2.4-0.4,2.8-0.8,3.2-3.3c0.3-1.7,0.6-3.4,0.8-5.1c0.5-4,1.1-7.9,1.5-11.9c0.2-1.8,0.2-3.7,0.1-5.6
	c-0.1-1-0.5-2.1-1-3c-2-3.2-3.5-3.8-7.4-3c-0.5,0.1-1,0.3-1.6,0.3c-2.6,0.3-3.5-0.2-4.5-2.8c-1.2-3.2-2.7-4-5.8-2.9
	c-3.7,1.3-7,3.1-9.8,6c-7.4,7.7-14.9,15.3-22.6,22.6c-3.6,3.4-4.6,7.6-5.5,12.1c-0.2,0.8,0.2,1.9,0.5,2.7c1.2,3.2,1.3,6.5,0.7,9.8
	c-0.6,3-1.2,6-1.8,9c-0.3,2-1.3,3.8-2.2,5.5c-0.9,1.8-2.3,2.9-4.2,3.4c-1,0.3-2.1,0.6-3.1,0.5c-4.1-0.2-7.5,1.7-10.9,3.4
	c-6.1,3-12.1,6.1-18.2,9.1c-3.8,1.9-7.6,3.8-11.4,5.7c-0.9,0.5-2,1.2-2.9,0.1c-0.8-0.8-0.3-1.8,0.2-2.6c1.3-2.3,1-4.5-0.3-6.8
	c-1.8-3.3-3.4-6.6-5-10c-1.4-3-2-6.3-2.3-9.7c-0.4-4-0.6-8-0.9-11.9c-0.1-1.8-0.7-3.4-2.5-4.2c-1.6-0.7-2.4-2.1-2.7-3.7
	c-0.2-1.2-0.5-2.4-0.5-3.6c-0.1-3.5,0-6.9-0.1-10.4c0-2.2,0.6-4.2,1.7-6.1c0.4-0.7,0.9-1.4,1.2-2.1c0.7-1.7,0.7-3.4-0.3-5
	c-1.9-3.1-3.7-6.2-5.5-9.3c-0.3-0.6-0.7-1.1-1-1.7c-0.8-1.9-0.4-3.3,1.2-4.6c1.1-0.9,2.4-1.7,3.4-2.8c2-1.9,2.8-4.2,1.3-6.8
	c-1.2-2.2-1-4.4-0.2-6.6c1-2.5,1.5-5.1,1.6-7.8c0.1-2.2-0.8-3.8-2.4-5.2c-2.7-2.3-5.9-2.9-9.3-3.1c-1.4-0.1-2.6,0.5-3.6,1.4
	C475.6,608.3,474.8,609.6,473.1,610.1z"/>
<path id="XMLID_12_" class="st0" d="M108.4,389.7c-0.3,0.5-0.5,0.9-0.8,1.1c-2.4,1.4-4.7,2.9-6.4,5.3c-0.8,1.2-1.9,1.2-3.2,0.5
	c-0.1-0.1-0.2-0.1-0.3-0.2c-3.7-2.5-7.3-1.8-10.8,0.5c-0.9,0.6-1.8,1.1-2.7,1.7c-2.5,1.6-3.2,3.3-2.4,6.1c0.8,2.8,1.8,5.6,2.7,8.4
	c0.5,1.7-0.4,2.7-2,2.3c-0.4-0.1-0.8-0.1-1.2-0.3c-2.8-1.4-5.7-2.8-8.5-4.4c-3.3-1.8-5.4-4.5-6.7-8.1c-0.9-2.6-2.2-5.1-3.6-7.6
	c-1-1.9-2.4-3.5-4.2-4.8c-1.1-0.8-2.1-1.7-3-2.6c-2-1.8-3.9-3.7-4.4-6.5c0-0.3-0.2-0.5-0.3-0.7c-2.5-5.5-6.1-7.5-12.2-6.9
	c-1.6,0.2-3.2,0.3-4.8,0.3c-1.8,0-3.3-0.8-4.3-2.5c-0.5-0.9-1.2-1.8-1.6-2.8c-0.8-2-1.9-3.8-3.8-5c-1.2-0.7-1.3-2-0.7-3.2
	c1.2-2.2,1.2-4.6,1-7c-0.1-0.9-0.3-1.8-0.5-2.7c-1.2-4-2.4-7.9-3.6-11.8c-0.5-1.8-0.2-3.4,1.2-4.8c1.3-1.3,2.6-2.7,3.9-4
	c3-2.9,4-6.2,2.7-10.2c-0.1-0.4-0.3-0.8-0.3-1.2c0.1-5.7-3.5-9.5-6.9-13.5c-2.1-2.4-4.2-4.8-6.2-7.3c-1.1-1.2-1.7-2.7-2.1-4.3
	c-1.1-4.9-2.2-9.9-2.6-14.9c-0.2-3.2-0.5-6.4-2.1-9.3c-0.3-0.5-0.4-1-0.5-1.5c-0.5-2.3,0-3.5,2.2-4.5c1.6-0.7,3.2-1.5,4.8-1.9
	c2.9-0.7,5.4-2.2,7.8-4c10.4-7.9,20.8-15.8,31.3-23.6c2-1.5,4.2-2.8,6.4-4.1c4.8-2.8,9.7-5.6,14.5-8.4c5.1-3,10.1-6,15.1-9
	c7.2-4.3,14.5-8.4,21.6-12.9c7.9-5,15.5-10.3,23.3-15.5c7.9-5.2,15.8-10.4,23.7-15.6c1.9-1.2,4-2.1,6.2-2.8c4.1-1.2,8.1-2.7,12.1-4
	c3.3-1.1,6.6-2,9.9-3.1c6.8-2.2,13.7-4.5,20.5-6.8c1.5-0.5,3-1,4.6-1.4c0.8-0.2,1.6,0.2,2.1,0.9c0.4,0.7,0.9,1.4,1,2.2
	c0.4,3.2,0.7,6.3,0.9,9.5c0.1,2-0.2,4-0.4,6c-0.2,1.9-0.3,3.7-0.6,5.5c-0.6,3.3-0.8,6.6,0.8,9.7c0.9,1.8,1.4,3.7,2,5.6
	c0.8,2.8,2.6,4.9,4.4,7c1.5,1.7,1.4,2.6-0.1,4c-0.3,0.3-0.6,0.5-0.9,0.7c-2.4,2-3,4-1.9,7c0.4,1,1,1.9,1.4,2.9
	c0.9,2.1,0.6,3.4-1.2,5c-0.7,0.6-1.5,1.1-2.2,1.8c-1.3,1.4-1.3,3.3,0.2,4.6c0.9,0.7,2,1.4,3.1,1.7c4.2,1,5.8,4.4,7.5,7.7
	c0.6,1.1,0.3,2.3-0.3,3.5c-1.7,3.3-3.4,6.7-5.1,10c-1.1,2.2-2.8,3.8-4.9,5.2c-2.1,1.4-4.3,2.7-6.3,4.2c-3.6,2.7-3.6,5-0.1,7.6
	c6.1,4.5,12.4,8.8,18.6,13.2c0.5,0.4,1.1,0.8,1.6,1.1c1.8,1.2,2.8,2.6,1.9,5c-0.9,2.2-0.4,4.4,1.1,6.4c1.3,1.8,2.3,3.9,3.5,5.8
	c1.1,1.9,1,3.8-0.2,5.6c-0.9,1.3-1.7,2.7-2.7,4c-1.4,1.9-1.8,3.7-0.6,5.9c0.8,1.5,0.5,1.9-0.9,3c-4.4,3.3-4.2,6,0.5,8.6
	c0.7,0.4,1.4,0.8,2,1.2c0.2,0.1,0.3,0.4,0.5,0.9c-0.5,0.5-0.9,1.1-1.5,1.5c-1.6,0.9-2.2,2.3-1.8,4.1c0.4,1.5,0.3,2.9-0.4,4.3
	c-1,1.9-1,3.8-0.2,5.8c0.2,0.6,0.4,1.3,0.6,1.9c1.1,3.4,3.5,4.5,6.8,3.2c0.7-0.3,1.4-0.8,2.1-1.1c0.9-0.4,1.8-0.4,2.6,0.4
	c0.7,0.8,0.9,1.7,0.4,2.6c-0.3,0.7-0.8,1.4-1.3,2c-0.8,0.9-1.7,1.7-2.5,2.6c-2,2.4-1.9,4.1,0.1,6.3c0.3,0.3,0.6,0.6,0.9,0.8
	c3.1,2.7,6.2,5.4,9.5,8c1.5,1.2,2,2.4,1.3,4.1c-0.9,2.2-0.4,4.1,1.2,5.9c0.8,0.9,1.5,1.8,2.3,2.8c1,1.3,1,2.4-0.2,3.5
	c-0.4,0.4-0.8,0.7-1.2,1c-7,5.2-13.9,10.3-20.8,15.5c-2,1.5-3.9,3.2-5.7,5c-2.9,2.9-5.8,5.9-8.6,8.9c-0.3,0.3-0.6,0.6-0.9,0.8
	c-0.8,0.6-1.7,0.8-2.6,0.2c-1.4-0.9-2.5-2-2.5-3.8c0.2-4.8-3.2-7.7-5.6-11.1c-0.8-1.1-2.2-1.4-3.6-1.4c-1.9,0-3.8,0-5.6,0.4
	c-2.8,0.6-5.2,0.5-7.5-1.4c-1.3-1.1-3-1.7-4.5-2.6c-2.4-1.5-4.7-1.6-7.2-0.3c-2.4,1.2-4.7,2.5-7.1,3.7c-2,1.1-2.6,0.9-3.9-1
	c-1.3-1.8-2.5-3.9-4.1-5.4c-4.9-4.7-10.7-6.3-17.3-3.9c-3.1,1.1-6.3,2.2-9.5,3.2c-1.7,0.5-2.6,0-3-1.6c-0.4-1.5-0.7-3.1-1-4.7
	c-0.2-1-0.5-2.1-0.7-3.1c-0.5-2.8-2.3-4.4-4.7-5.5c-1.8-0.8-3.6-1-5.4-0.3c-3.8,1.5-7.7,3-11.5,4.6c-4.4,1.8-5.2,4-3.5,8.6
	C108,388.5,108.2,389.1,108.4,389.7z"/>
<path id="XMLID_11_" class="st0" d="M260.1,372.5c0.6-1.2,1-2,1.4-2.8c0.8-1.6,0.6-3.1-0.7-4.4c-1.4-1.4-2.9-2.8-4.4-4.1
	c-1.9-1.7-3.8-3.3-5.7-5c-0.5-0.4-1-0.9-1.3-1.5c-0.6-0.8-0.7-1.7,0-2.6c0.3-0.4,0.7-0.8,1-1.2c1.7-1.7,1.9-3.7,1.3-5.9
	c-0.4-1.4-1.2-2.7-1.4-4.2c-0.5-2.9-2.5-4.3-4.9-5.2c-1-0.4-2-0.7-3-1.1c-0.6-0.3-0.7-1.3-0.2-1.7c0.1-0.1,0.2-0.2,0.3-0.3
	c4.2-1.2,4.4-5.3,5.9-8.4c0.2-0.5,0.1-1.4-0.3-1.9c-0.6-0.9-1.4-1.6-2.2-2.3c-0.5-0.4-1.2-0.6-1.8-0.9c-1.5-1-2.1-2.2-1.2-3.7
	c1.1-1.9,1-3.5-0.4-5.1c-0.1-0.1-0.1-0.2-0.2-0.3c-1.6-2-1.3-3.9,0.2-5.8c0.9-1.2,1.6-2.4,2.5-3.6c1.5-2.1,1.6-4.1,0.2-6.3
	c-1.4-2.1-2.6-4.4-3.9-6.5c-1.1-1.9-1.1-2.7,0.4-4.2c0.3-0.3,0.6-0.5,0.9-0.8c1.6-1.8,1.7-4-0.1-5.7c-1.1-1.1-2.5-2-3.8-3
	c-5.9-4.2-11.7-8.3-17.6-12.5c-0.4-0.3-0.9-0.6-1.3-0.9c-0.7-0.6-0.8-1.8-0.1-2.5c0.5-0.6,1.2-1.1,1.8-1.5c2.8-1.7,4.9-4,6.3-7
	c1.9-4.1,4.1-8.1,6.3-12c1.4-2.6,1.3-5.1-0.1-7.6c-1.8-3-3.5-6-5.3-8.9c-0.7-1.1-1.1-2.2-0.8-3.4c0.7-2.5-0.2-4.7-1.2-6.9
	c-0.6-1.2-1.4-2.3-0.7-3.7c0.8-1.5,2.3-2.2,3.9-2.5c0.5-0.1,1.1,0,1.6,0c3.3,0.6,6.5,1.3,9.8,1.8c1.2,0.2,2.4,0.1,3.6-0.1
	c3.2-0.4,6.3-1.1,9.5-1.4c2.7-0.2,4.7-2.3,5-4.9c0.2-2,0.1-4,0.1-6c0-0.9-0.1-1.9-0.1-2.8c0.1-1.6,0.8-2.9,2.3-3.5
	c1.5-0.6,3-1.4,4.5-1.5c4-0.2,7.9-1.1,11.8-2.1c2.9-0.7,5.7-0.6,8.7,0.1c5.9,1.3,11.5,3.4,17.1,5.4c4.9,1.7,9.9,3.3,14.8,4.9
	c0.6,0.2,1.3,0.4,1.9,0.7c2.7,1.5,4.5,3.7,4.4,7c-0.1,1.6,0,3.2-0.1,4.8c-0.1,2.3,0.5,4.5,2.2,6.2c1.2,1.2,1.9,2.9,3.5,3.8
	c2.2,1.3,4.5,2.1,7.2,2c4.9-0.2,9.9-0.1,14.8,0c2.7,0,5.3,0,7.9-0.7c1.4-0.4,2.9-0.3,4.4-0.3c4.9,0.1,9.1-1.3,12.8-4.7
	c2.2-2,4.5-3.7,6.9-5.4c1.7-1.2,3.6-2.3,5.5-3.2c5.6-2.8,11.2-5.6,16.8-8.4c1.9-1,3.7-2.1,5.7-2.9c5.1-2,9.1-5.6,13.2-8.9
	c0.8-0.7,1.7-1.3,2.5-2c1.7-1.7,3.5-3.3,5-5.1c2.2-2.7,4.1-5.6,6.2-8.3c1.9-2.6,3.7-5.2,4-8.6c0-0.4,0.2-0.8,0.3-1.1
	c0.4-1.1,1.9-1.3,2.6-0.4c0.5,0.6,1,1.4,1,2.1c0.2,4.9,3.2,8.3,6.5,11.6c1.5,1.5,3,3,4.5,4.5c0.6,0.7,1.2,1.4,1.7,2.2
	c1.3,2.1,1.5,4.2,0,6.4c-0.3,0.4-0.6,0.9-0.9,1.3c-2.4,2.9-2.8,6.3-1.9,9.8c0.8,3.2,1.8,6.4,2.9,9.6c0.5,1.6,0.7,3.1,0.2,4.7
	c-0.6,2.4,0,4.4,1.4,6.3c1.7,2.2,3.4,4.5,4.5,7.1c2.5,5.9,2,11.7-1.7,17.1c-0.6,0.8-1.6,1.5-2.5,1.9c-2.1,0.9-4.3,1.6-6.4,2.2
	c-1.3,0.3-2.6,0.3-4,0.4c-2.5,0.1-5.1,0-7.6,0.1c-2.7,0.1-5.2,0.8-7.4,2.6c-2.6,2-4.9,4.1-6.5,6.9c-1.3,2.2-1.5,4.5-1,6.9
	c0.5,2.2,0.9,4.4,1.4,6.6c0.4,1.7,0.8,3.4,1.4,5c0.7,1.7,0.8,3.3-0.2,5c-0.3,0.6-0.6,1.2-0.8,1.8c-0.5,1.7-0.2,3.2,1.1,4.4
	c1.5,1.3,3.1,2.5,5,3.3c4.9,1.9,4.9,2,3.3,7.2c-0.5,1.5-1,3-1.7,4.5c-1.2,2.4-2.7,3-5.2,2.4c-1-0.3-2-0.8-3-1.2
	c-0.9-0.3-1.7-0.7-2.7-0.8c-1.6-0.2-3,0.3-3.8,1.8c-1.4,2.6-2.6,5.2-3.8,7.9c-0.6,1.3-0.5,2.6-0.1,3.9c0.7,2.2,1.3,4.3,2,6.5
	c0.3,1.1,0.8,2.3,1,3.5c0.5,3-2.1,5.2-5,4.1c-1.9-0.7-3.7-1.6-5.5-2.3c-1-0.4-2-0.8-3-0.9c-2.6-0.4-4.1,1-3.9,3.7
	c0,0.9,0.3,1.9,0.5,2.7c0.7,2.2,0,3.9-1.9,5.2c-0.3,0.2-0.7,0.4-1,0.7c-2.6,2.2-2.9,4.6-0.8,7.3c0.2,0.2,0.4,0.4,0.5,0.6
	c1.2,1.6,1.2,2.6,0,4.3c-3.1,4.5-6.2,9-9.4,13.4c-0.5,0.7-0.9,1.3-1.3,2c-0.8,1.6-0.4,3.2,1.1,4.2c0.9,0.5,1.9,0.9,2.9,1.2
	c0.7,0.3,1.5,0.4,2.2,0.8c1.6,0.9,2.2,2.3,1.7,4c-1.3,4.7-3.1,9-7.3,12.1c-1.8,1.3-3.3,2.2-5.4,0.9c-2.2-1.4-4.3-1.2-6.1,0.8
	c-1.3,1.3-2.6,1.1-4,0.2c-0.2-0.1-0.4-0.3-0.7-0.4c-3.7-2.2-7.7-1.1-9.8,2.7c-0.7,1.2-1.3,2.3-1.9,3.5c-1.5,3.1-1.8,6.1,0.6,9
	c0.7,0.8,1.3,1.7,0.8,2.9c-0.4,0.9-1.7,1.1-3.3,0.7c-1.6-0.4-2.9-1.3-3.6-2.9c-0.5-1.1-0.9-2.2-1.5-3.2c-1.6-2.5-2.8-2.9-5.8-2.2
	c-2.3,0.6-4.7,1.1-7,1.7c-2.1,0.5-4.2,0.6-6-1.1c-0.9-0.9-2.2-0.9-3.4-0.9c-1.6,0-3.2,0.2-4.8,0.2c-2.2,0-2.7-0.3-3.4-2.5
	c-0.7-2-1.3-4.1-2.1-6c-1.2-3.1-2.8-3.8-5.9-2.8c-1.4,0.5-2.8,1-4.1,1.7c-1.7,0.8-3,0.6-4.3-0.7c-3-2.9-3.3-3-6.8-1
	c-1,0.6-2.1,1.2-3.1,1.8c-2.4,1.3-4.1,3.2-5.4,5.7c-1.7,3.6-3.6,7.1-5.5,10.6c-0.1,0.1-0.1,0.2-0.2,0.4c-1.1,1.9-2.6,2.4-4.3,1.1
	c-1.7-1.3-3.6-1.6-5.6-1.6c-2.8,0.1-5.6,0.1-8.4,0.1c-2.4,0-3.1-0.6-3.7-2.8c-0.3-1.2-0.3-2.4-0.5-3.6c-0.2-1.2-0.3-2.4-0.7-3.5
	c-0.8-2.3-1.8-3-4.2-2.7c-2.1,0.3-4.2,0.9-6.2,1.5c-2.1,0.7-3.4,0.7-3.6-0.2c-0.3-1.4,0.9-2.2,1.7-2.9c1.8-1.4,3.7-2.6,5.5-3.9
	c1.9-1.5,3.5-3.2,3.8-5.9c0.2-1.8,0-3.4-1.2-4.9C262.2,375.5,261.3,374.1,260.1,372.5z"/>
<path id="XMLID_10_" class="st0" d="M507.9,296.5c-4.8-2.8-4.8-2.7-10.3-1.5c-2.3,0.5-4.6,1.3-6.8,1.5c-1.4-1.9-2.6-3.4-3.7-5
	c-0.8-1.1-0.5-2.3-0.4-3.5c0.1-1.1-0.1-2.1-0.9-2.9c-1.2-1.2-2.4-1.5-4-0.8c-0.4,0.2-0.7,0.4-1,0.6c-2,1.3-4,1-6.1,0.1
	c-1.9-0.9-3.9-1.7-5.8-2.7c-3.2-1.8-6.7-2.5-10.2-3.3c-2.1-0.5-4.2-0.4-6.2,0.6c-1.8,0.9-3.5,1.1-5.2-0.2c-1.4-1.1-3-0.9-4.5,0.1
	c-0.4,0.3-0.9,0.7-1.4,0.8c-0.6,0.2-1.3,0.4-1.9,0.2c-0.7-0.3-0.7-1.1-0.5-1.7c0.5-1.3,0.2-2.6-0.1-3.9c-0.5-3-1.3-6-2.2-8.9
	c-1.8-5.8-0.3-8.9,5.5-12.1c2-1.1,4.5-1.7,7-1.5c1.3,0.1,2.7,0,4,0.1c5.4,0.4,10.2-1.8,15-3.6c0.7-0.3,1.3-0.9,1.7-1.6
	c2.2-3.9,4.6-7.8,4.4-12.6c1.4-4.9-0.4-9.5-1.9-14c-0.3-1-0.9-1.9-1.6-2.7c-1.7-2.3-2.7-4.7-2.8-7.7c-0.1-2.6-1.1-5.2-1.8-7.7
	c-0.6-2.2-1.3-4.3-1.9-6.5c-0.4-1.4-0.1-2.7,1.1-3.6c4.2-3,6.1-7.7,8.2-12.1c1.3-2.8,0.8-4.3-2-6c-0.7-0.4-1.4-0.7-2.2-1
	c-0.6-0.3-1.3-0.4-1.9-0.7c-5.3-2.9-5.3-2.7-5.3-8.2c0-2.9-0.2-5.9-0.3-8.8c0-0.7,0-1.5,0.7-1.7c0.6-0.2,1.4-0.2,1.9,0.1
	c2,1.5,4.2,2.3,6.5,3c2.4,0.8,4.9,1.3,7.5,1.2c2.5,0,5.1,0,7.6,0.1c2.9,0.1,5.1-1.3,7.3-2.8c0.5-0.3,0.9-1,1.1-1.6
	c0.6-2,1.2-4.1,1.5-6.2c0.6-4-0.9-7.3-3.3-10.3c-1.4-1.8-2.8-3.6-4.3-5.3c-1.6-1.7-1.9-3.6-0.7-5.5c1.3-2.2,1.7-4.5,1.4-6.9
	c-0.2-1.5,0.4-2.5,1.7-3.3c4.9-3,9.9-5.7,15.5-7.4c2.8-0.8,5.5-2,8.4-2.5c3.3-0.7,6,0.7,4.9,5.2c-0.3,1-0.6,2-1,3
	c-0.3,0.9-0.8,1.7-1,2.6c-0.5,2.6-1.3,5.5,0.4,7.7c1.9,2.4,4.4,4.3,7.7,4.5c2.3,0.1,4.6,0.1,6.8-0.3c2.5-0.4,4.8-0.5,7.1,0.5
	c2.8,1.2,5.8,1.2,8.7,0.9c3.8-0.5,7.1-2.3,9.7-5.2c1.5-1.7,2.9-3.4,4.4-5.2c4.4-5.4,8.7-10.8,13.1-16.2c2.2-2.7,5.1-4.3,8.4-5.2
	c0.9-0.2,1.9-0.2,2.8-0.1c3,0.5,5.4,2.2,7.5,4.3c1,1.1,1.6,2.5,1.5,4c0,1.5-0.2,2.9-0.4,4.4c-0.3,2-0.7,3.9-1,5.9
	c-0.1,0.7-0.2,1.3-0.4,1.9c-0.6,1.7-1.6,2.3-3.4,2c-1.6-0.2-3.2-0.6-4.7-0.5c-3.1,0.1-4.4,1.1-5.3,4c-1.6,4.9-0.5,7.2,4.3,9
	c1.7,0.6,3.3,0.8,5.1,0.8c3.2,0,6.4-0.1,9.5,0.8c1.4,0.4,2.9,0.1,4.4,0.2c1.8,0.2,3.7,0.3,5.5,0.9c2.5,0.8,5.1,1.8,7.3,3.2
	c3.3,2.1,6.6,1.8,10,0.5c1.6-0.6,3.1-1.6,4.4-2.7c4.9-4.3,8.9-9.6,12.4-15.1c1.3-2,2.2-4.2,3.4-6.3c1.2-2.1,1.7-4.5,2.2-6.8
	c0.4-1.8,1.8-2.3,3.4-1.5c4.1,2.1,7,5.4,8.5,9.7c1.1,3,1,6.1-0.6,8.9c-1.4,2.5-2.1,5.1-2.1,8c0,1.1-0.2,2.1-0.5,3.1
	c-1,4.1,0.4,7.6,2.9,10.7c1.6,2,3.2,4,5,5.7c2.9,2.8,4.3,6.3,5.2,10.2c0.5,2.4,1.1,4.7,2.3,6.8c1.9,3.5,6.5,5.5,10.5,5
	c2.8-0.3,5.6-0.3,8.4-0.3c1.4,0,2.5,0.7,3.3,1.9c1.3,1.8,1.9,3.7,1.9,6c0,3.3,0.3,6.6,0.6,9.9c0.1,0.9,0.6,1.8,1.1,2.5
	c1.1,1.5,1.2,3.1,0.8,4.9c-0.6,2.6-0.9,5.3-1.6,7.8c-0.9,3.5,0.1,6.2,2.9,8.5c1.8,1.5,3.4,3.4,5.1,5c1.7,1.7,2.7,3.6,2.6,6
	c-0.1,2,0.1,4,0.1,6c0,1.8-0.6,3.4-2,4.6c-1.4,1.2-2.9,1.9-4.7,1c-0.5-0.2-1-0.4-1.5-0.6c-3.4-0.9-5.1-0.3-7.2,2.6
	c-0.5,0.6-0.9,1.3-1.3,2c-1.5,2.5-3.4,3.8-6.5,3.7c-2.5-0.1-5,0.6-7.5,0.8c-1.2,0.1-1.9,0.8-2.6,1.7c-2.2,2.7-4.6,5.2-6.6,8
	c-2,2.8-4.6,4.3-7.9,4.8c-4.3,0.7-8.6,1.6-12.9,2.5c-3.2,0.6-4,1.3-3.9,4.5c0.1,2.8-1.2,4.8-2.6,6.9c-0.7,1-1.6,1.4-2.8,1.2
	c-0.8-0.1-1.6-0.2-2.4-0.3c-3.6-0.2-7.2-0.2-10.5,1.8c-1.2,0.7-2.8,0.9-4.1,1.6c-2,1-4,2.1-5.6,3.8c-1.1,1.2-2.5,1.9-4.3,1.4
	c-0.8-0.2-1.8,0.1-2.7,0.4c-2.4,0.9-4.6,2-7,3c-0.7,0.3-1.5,0.6-2.3,0.8c-1.1,0.3-2.2,0-2.9-1c-0.6-0.8-1.1-1.8-1.5-2.8
	c-0.7-1.4-1.2-3-2.1-4.3c-1.5-2.4-3.7-2.9-6.1-1.5c-1.1,0.7-2.3,1.4-3.2,2.4c-1.8,1.9-3.9,2.7-6.5,2c-2.1-0.5-3.9,0.2-5.3,1.9
	c-0.5,0.6-1.1,1.1-1.8,1.6c-0.7,0.5-1.5,0.6-2.3,0.2c-1.6-0.8-3.1-1.5-4.6-2.3c-1.3-0.7-2.5-0.7-3.8-0.3c-5.1,1.4-10.3,2.8-15.4,4.2
	c-2.8,0.7-4.7,2.1-5.7,5c-1.1,3.5-2.3,3.8-5.6,1.9c-1-0.6-2-1.3-3-1.9c-1.8-1-3.5-1.1-5.2,0.2c-0.3,0.2-0.6,0.5-0.9,0.8
	c-1.1,0.9-2.2,0.7-3.3,0c-1-0.7-1.9-1.5-2.9-2.2c-3.4-2.4-5-2.2-7.9,0.8C508.9,295.8,508.5,296.1,507.9,296.5z"/>
<path id="XMLID_9_" class="st0" d="M686.5,418.7c-0.9,1.3-1.9,1.2-2.8,0.9c-2-0.6-4-1.4-6-2.1c-1-0.4-1.4-1.2-1-2.3
	c0.5-1.5,1.1-3,1.6-4.5c0.6-2,0.6-3.9-1.3-5.4c-1.4-1.1-1.4-2.5-0.7-4c0.2-0.4,0.3-0.7,0.5-1.1c1.1-1.9,1.2-3.8,0.3-5.7
	c-1.3-2.6-0.4-4.5,1.5-6.4c2.4-2.3,4.7-4.8,7.1-7.1c2.4-2.3,1.8-5.1-0.8-6.7c-0.5-0.3-0.9-0.5-1.4-0.8c-1.1-0.7-1.6-1.9-1.4-3.1
	c0.8-3.6,0.2-7.5,2.4-10.8c0.1-0.2,0.2-0.5,0.2-0.8c0.3-3,1.9-4.4,5-4.4c1.6,0,2.7-1,3.4-2.5c0.5-1.1,1-2.2,1.2-3.4
	c0.6-3,1.2-6,1.7-9c0.1-0.6,0.1-1.4-0.2-1.9c-1.8-3.1-4.1-5.6-8-5.8c-0.8,0-1.6,0-2.4,0c-1.1,0-2.1-0.3-2.9-1.1
	c-0.6-0.5-1.2-1-1.9-1.5c-1-0.7-2.2-1-3.4-0.4c-1.4,0.7-2.9,1.3-4.3,2.1c-1.7,1-3.2,1.1-4.7-0.4c-1.5-1.5-3.2-2.3-5.4-1.9
	c-1.3,0.2-2.2-0.6-2.5-2c-0.3-1.4,0-2.7,1-3.7c1.3-1.3,2.7-2.6,4.2-3.7c2.7-2,4.2-4.5,3.8-7.9c-0.4-3.1,1.4-4.7,3.9-5.8
	c1.7-0.8,3.4-1.5,5-2.4c1.4-0.7,2.1-2,2-3.6c0-0.4,0-0.8,0-1.2c0-1.6,0.8-2.5,2.2-3c0.9-0.3,1.8-0.6,2.6-1c0.9-0.5,1.9-1.1,2.6-1.7
	c1.1-1,1.3-2.3,0.8-3.7c0-0.1-0.1-0.3-0.1-0.4c-3.2-4.9-6.2-10.1-12-12.4c-1.3-0.5-2.8-0.8-4.3-0.8c-2,0-4,0.3-6,0.6
	c-2.6,0.4-3.8,1.6-4,4.2c-0.1,1.2,0,2.4,0,3.6c0,0.5,0,1.1,0,1.6c-0.2,1.8-1.5,2.9-3,2.1c-2-1-3.9-1.6-6.1-1.4
	c-0.5,0-1.2-0.5-1.7-0.9c-0.5-0.6-0.8-1.4-1.3-2c-1.8-2.1-2.3-4.1-0.4-6.4c0.5-0.6,0.4-1.5,0.6-2.3c0.5-2,1.9-3.1,3.9-3.5
	c4.1-0.7,8.1-1.7,12.2-2.3c2.4-0.4,4.2-1.5,5.7-3.3c1.8-2.3,3.7-4.6,5.4-6.9c1.7-2.3,3.7-3.6,6.7-3.6c2.6,0,5.3-0.6,7.9-0.9
	c1.1-0.1,2-0.7,2.6-1.7c1-1.4,2-2.9,3-4.3c0.7-1,1.7-1.3,2.8-1c0.9,0.2,1.8,0.5,2.7,0.9c1.9,0.8,3.7,0.5,5.2-0.9
	c2.1-1.9,4.1-3.8,6.1-5.8c1-1,1.4-2.4,1-3.7c-1-4.2-0.8-8.5-0.7-12.7c0.1-2.6-0.6-4.6-2.6-6.4c-2.1-1.8-4-3.9-6-5.9
	c-1.1-1.1-1.8-2.4-1.5-3.9c0.5-2.7,1.2-5.5,1.8-8.2c0.4-1.9,1.6-2.9,3.4-3.6c4.2-1.6,8.5-2.1,13-1.3c2.4,0.4,4.8,0.5,7.2,0.5
	c2.9,0,5.9,0,8.8,0.1c0.8,0,1.6-0.1,2.4,0.1c5.3,1.5,9.6-0.9,13.7-3.6c3-2,5.9-4.1,8.9-6.2c3-2.1,6-2,9-0.2
	c4.5,2.6,7.4,6.4,8.3,11.6c0.6,3.7,1.9,7.2,1.5,11c-0.2,1.8,0.9,3,2.1,4.1c3.1,2.8,6.5,5.1,10.6,6.1c2.2,0.5,4.3,1.3,6.5,1.9
	c2.5,0.7,4.7,1.9,6.4,3.8c0.9,1,2,1.8,2.9,2.7c1.5,1.5,3.4,2,5.5,2.1c3.9,0.1,7.8-0.5,11.4-1.7c3.7-1.3,6.2,0.3,8.5,2.7
	c1.2,1.3,2,2.9,3.1,4.2c1.4,1.6,2.9,3.1,4.5,4.5c1.6,1.4,3.5,1.7,5.6,0.8c1.2-0.5,2.5-0.8,3.9-1c0.9-0.1,1.9-0.1,2.7,0.1
	c1.1,0.2,1.7,1.4,1.3,2.5c-0.3,0.7-0.7,1.4-1.1,2.1c-0.6,1.3-1.3,2.7-1.7,4c-0.7,2.1-0.8,4.2,1.1,5.9c0.3,0.2,0.5,0.7,0.5,1
	c0.2,0.7-0.1,1.4-0.8,1.6c-0.9,0.2-1.9,0.1-2.7,0.3c-2.6,0.6-3.7,2.5-3,5c0.3,1.2,0.7,2.3,0.9,3.5c0.3,1.5-0.1,2.9-1,4.2
	c-0.6,0.9-1.4,1.7-2.5,1.7c-5.1,0.3-6.6,4-7.5,8c-0.5,2.2-0.3,4.5-0.2,6.8c0,0.9,0.5,1.8,1,2.6c1.3,1.8,1.2,3.5,0.3,5.6
	c-2,4.7-4.8,8.9-7.5,13.2c-1.1,1.8-2.3,3.6-3.3,5.4c-0.5,0.9-0.9,1.9-1.2,3c-0.5,2.2,0.6,3.7,2.8,4c0.1,0,0.3,0,0.4,0
	c4.2,0.4,4.2,0.3,2.5,4.5c-1.2,2.9-2.6,5.6-4.4,8c-0.9,1.2-1.9,2.2-3.4,2.7c-1.1,0.4-2.2,1-3.3,1.5c-1.4,0.6-2.4,1.6-3.4,2.7
	c-3.6,4.1-7.2,8.2-10.8,12.3c-1.8,2-3.5,4-5.2,6c-1,1.2-1.5,2.5-1.4,4c0,1.5,0,2.9,0,4.4c0,3.4,1,6.6,3.1,9.3
	c0.6,0.7,1.1,1.5,1.7,2.2c1.5,2.2,1.5,2.8-0.4,4.8c-1.2,1.3-2.5,2.4-3.7,3.7c-1.8,2-3.9,3.1-6.4,3.9c-5.2,1.5-10.5,3.2-15.7,4.8
	c-0.3,0.1-0.5,0.1-0.8,0.2c-3.7,1.1-4.3,2.5-4,5.4c0.3,3.1-1.4,5-3.4,6.8c-1.2,1-2.4,1-3.6,0c-0.6-0.5-1-1.3-1.7-1.7
	c-0.9-0.6-1.8-1.2-2.8-1.5c-1.8-0.5-3.1,0.2-3.9,1.9c-0.4,0.8-0.6,1.8-1,2.6c-1,2.2-2.5,2.9-4.9,2.1c-1.7-0.5-3.1-1.6-3.8-3.3
	c-0.6-1.5-1.2-3-2-4.4c-1.5-2.8-5.9-4.6-8.9-3.5c-3,1-6,2.2-9,3.2c-3,1-5.4,2.9-7.5,5.1c-0.3,0.3-0.5,0.6-0.8,0.9
	c-1.2,1.2-2.3,1.7-3.9,0.5c-1.2-1-2.7-1.1-4.2-0.8c-0.9,0.2-1.8,0.6-2.5,1.1c-1.5,1.1-2.9,1.1-4.4,0c-0.2-0.2-0.4-0.3-0.7-0.4
	c-1.3-0.8-2.7-0.8-3.7,0.3c-2.3,2.6-4.9,2.5-8,1.8c-2.3-0.5-4.8-0.4-7.2-0.3c-2.8,0.1-4,1.9-3.2,4.6
	C685.5,416.4,686,417.5,686.5,418.7z"/>
<path id="XMLID_25_" class="st0" d="M385.4,396.4c4.3,1.3,7.9-0.2,11.1-2.8c0.6-0.5,1.3-1,1.9-1.4c4-3,6.6-6.9,7.7-11.8
	c0.3-1.4,0.9-2.8,1.3-4.2c0.5-1.6,0.6-3.1-0.1-4.7c-1-2.5-1.6-5.1-3.8-6.9c-1.3-1.1-1.2-1.9-0.1-3.5c1.8-2.6,3.6-5.3,5.6-7.8
	c1.7-2.1,2.2-4.5,2-7.1c-0.1-0.9-0.1-1.9-0.2-2.8c-0.1-1.4,0.2-2.7,1.4-3.6c1-0.8,1.5-1.8,1.9-3c0.6-1.4,1.4-1.7,2.9-1.2
	c1.6,0.6,3.2,1.6,5,0.7c2.6-1.4,5.5-2.6,6.9-5.3c1.5-3,2.1-6.3,0.8-9.7c-0.9-2.2-1.5-4.5-2.1-6.9c-0.2-1-0.2-2.1,0.1-3.1
	c0.4-1.7,1.7-2.3,3.4-1.9c0.6,0.1,1.3,0.4,1.9,0.6c2,0.6,3.9,0.2,5.8-0.6c3.8-1.6,6.6-3.8,7.2-8.2c0.3-2.3,1.3-4.6,2-6.9
	c0.2-0.8,0.4-1.5,0.7-2.3c0.8-2,1.3-4.1,3.5-5.2c2.5-1.2,5.2-1.3,7.8-0.6c2.5,0.7,4.9,2,7.4,3.1c1.4,0.6,2.4,1.6,2.9,3.1
	c0.8,2.3,2.7,3.1,4.9,3.5c1.7,0.3,3.4,0.8,5,1.3c1.5,0.5,2.4,1.6,3,3c0.1,0.3,0.2,0.5,0.3,0.7c1.7,3.9,2.4,4.2,6.3,3.1
	c3.2-0.9,6.5-1.6,9.7-2.3c1.6-0.4,2.9,0.2,3.9,1.4c0.4,0.5,0.8,1.1,1.2,1.6c2.2,2.1,4.9,2.1,7-0.1c0.4-0.4,0.7-0.8,1.1-1.2
	c1.6-1.5,2.3-1.5,4.1,0c0.5,0.4,1,0.9,1.5,1.3c2,1.4,4.1,1.8,6.4,0.5c0.3-0.2,0.7-0.4,1-0.6c1.3-1.1,2.6-0.8,4.1-0.1
	c2.1,0.9,4.2,1.6,6.4,2.3c3.4,1.1,5.7-1.2,6.7-3.6c0.3-0.6,0.4-1.3,0.6-1.9c0.8-2.1,2.2-3.6,4.5-4.2c3.6-0.9,7.2-2,10.8-3
	c0.5-0.1,1.1-0.2,1.6-0.2c1.6,0.1,2.7,1.4,2.4,3c-0.1,0.8-0.5,1.5-0.6,2.3c-0.3,1.4,0.2,2.6,1.4,3.5c1.3,0.9,2.8,0.9,4.1-0.1
	c0.8-0.6,1.5-1.5,2.3-2.2c1.8-2,3.6-3.9,5.4-5.9c1.1-1.2,2.4-1.7,4-1.4c2.5,0.5,4.5-0.2,6.2-2c0.2-0.2,0.4-0.3,0.6-0.5
	c1.6-0.9,3-0.6,3.5,1.1c0.5,1.7,1.3,3.2,2.6,4.4c2.2,2.1,4.8,2.9,7.7,1.9c1.9-0.6,3.7-1.4,5.6-2.2c2.1-0.9,4.2-1.7,6.6-1.4
	c2.9,0.4,5.3-0.7,7.2-2.7c3.2-3.4,7.4-5.1,11.6-6.7c1.9-0.7,3.5-0.5,4.7,1c1.6,2,3.6,2.5,6.1,2.1c2.1-0.3,3.6,0.5,4.3,2.6
	c0.2,0.6,0.5,1.2,0.9,1.8c1.6,2.4,3,2.9,5.8,1.8c1.5-0.6,2.8-0.7,4.1,0.2c0.5,0.4,1.2,0.6,1.8,0.9c1.8,0.8,3.6,0.6,5.4-0.3
	c0.7-0.4,1.3-0.9,2-1.3c1.6-1,2.4-2.4,2.3-4.3c-0.1-1.5,0-2.9,0.1-4.4c0.1-1.4,0.9-2.2,2.3-2.3c1.5-0.2,2.9-0.1,4.2,0.8
	c0.9,0.6,1.1,2,0.4,2.8c-0.1,0.1-0.2,0.2-0.3,0.3c-3.1,1.6-3.1,4.4-2.8,7.2c0.4,4.1,0.4,4.1-3.2,5.7c-1.4,0.7-2.9,1.4-4.3,2.1
	c-1.2,0.7-1.9,1.8-2,3.3c-0.1,1.7-0.4,3.4-0.6,5.2c-0.2,1.7-1,3-2.2,4.1c-1.9,1.7-3.7,3.4-5.5,5.2c-0.8,0.7-1.4,1.6-2,2.5
	c-0.7,1-0.9,2.2-0.4,3.4c1.1,2.7,2.3,5.4,3.4,8.1c1.1,2.6,3,4,6,3.4c1.4-0.3,2.7-0.1,3.7,1.1c2,2.4,4.7,2.3,6.9,1.1
	c3-1.6,5.7-1.7,8.7-0.5c1.2,0.5,2.6,0.3,4,0.5c0.8,0.1,1.6,0.1,2.3,0.4c0.5,0.2,1.3,0.9,1.2,1.4c-0.1,1.6-0.5,3.1-0.9,4.6
	c-0.1,0.4-0.8,0.7-1.2,0.9c-0.5,0.1-1.1,0-1.6,0c-2,0-3.4,1-4,2.7c-2.4,6.5-5.2,12.9-5.2,20c0,0.5,0,1.1-0.1,1.6
	c-0.8,3.1-0.7,6.1,1,8.9c-0.7,0.8-1.2,1.6-1.8,2.2c-1.4,1.4-2.8,2.8-4.2,4.3c-1.8,1.8-2.1,3.9-1.3,6.3c0.1,0.4,0.3,0.8,0.5,1.1
	c1.2,2.2,1.2,4.3-0.3,6.4c-0.5,0.6-0.7,1.4-1,2.2c-1,2.5-1.2,4.8,1.2,6.9c1.6,1.4,1.5,2.8,0.2,4.6c-0.1,0.2-0.3,0.4-0.5,0.6
	c-2.3,3-4.8,3.2-7.4,0.7c-1.5-1.5-2.7-3.3-2.6-5.7c0-0.4,0-0.8,0.1-1.2c0.4-2.9-0.8-4.9-3.3-6.3c-4.7-2.5-8.7-6.2-12.9-9.4
	c-2.8-2.1-3.8-2.1-6.7,0.1c-3,2.3-5.9,4.6-8.8,6.9c-0.8,0.7-1.6,1.5-2.8,1c-1.5-0.7-1-2-0.8-3.1c0.5-4.7-1.9-6.9-6.4-5.7
	c-3,0.8-6.1,0.6-9.1,1.1c-1.4,0.2-2.7-0.3-3.4-1.6c-0.9-1.8-2.4-2.3-4.3-2.3c-1.8,0-3-0.9-3.8-2.5c-0.7-1.3-1.5-2.5-2.2-3.8
	c-1-1.7-2.4-2.9-4.2-3.6c-2.2-0.9-4.5-1.6-6.8-2.5c-3.3-1.3-6.6-0.9-9.7,0.5c-1.6,0.7-3.1,1.6-4.6,2.4c-0.9,0.5-1.9,1-2.8,1.5
	c-1.6,0.9-3.1,1.2-5,0.6c-2.5-0.8-5.1-1.4-7.7-2.1c-0.5-0.1-1-0.3-1.5-0.4c-2.3-0.3-3.9,0.8-4.4,3c-0.1,0.6-0.1,1.3-0.2,2
	c-0.2,1.4-0.3,2.9-0.6,4.3c-0.7,3-0.7,5.8,1.3,8.3c0.6,0.7,0.9,1.6,1.2,2.3c-0.2,0.5-0.2,0.7-0.4,1c-0.9,1.2-1.9,2.4-3.6,2.1
	c-1.8-0.3-1.9-2-2.3-3.4c-0.3-1.2-0.4-2.4-0.9-3.5c-0.8-2-3-2.5-4.6-1.2c-1.5,1.3-2.9,2.7-4.3,4.2c-1.3,1.4-2.8,2.4-4.7,2.8
	c-3.4,0.7-6.8,1.5-9.9,3.2c-1.3,0.7-2.4,0-2.6-1.4c-0.1-1,0-2.1-0.1-3.2c-0.1-1.6-0.9-2.7-2.5-3.2c-1.9-0.5-3.9-0.8-5.9-0.4
	c-3.2,0.7-6.1,1.8-8.6,4c-1.4,1.2-3,2.2-4.4,3.4c-1.7,1.5-3.5,2.2-5.8,2.3c-1.5,0-2.9,0.4-4.4,0.5c-2.5,0.2-4.6,1.1-6,3.4
	c-1,1.6-2.4,1.4-3.5-0.1c-0.6-0.7-1-1.6-1.6-2.3c-1.9-2.1-4-2.1-5.8-0.1c-0.9,1-1.6,2.1-2.3,3.2c-0.4,0.7-0.7,1.5-1.2,2
	c-1.1,1.1-1.6,2.4-1.7,3.9c-0.1,3.7-2,5.7-6.2,4c-0.5-0.2-1-0.2-1.6-0.4c-1.9-0.5-3.7-0.6-5.4,0.5c-1.7,1.1-3.2,0.7-4.6-0.8
	c-2.1-2.3-4.7-3.4-7.9-3.2c-1.9,0.1-3.3-0.7-4.5-2.2c-0.7-1-1.3-2-2.1-2.9c-1-1.1-2-2.2-3.2-2.9c-2.8-1.6-7.2-1.1-8.9,1.8
	c-1.1,1.9-2.7,2.8-4.9,2.9c-1,0-2.1,0.6-2.9,1.1c-1.4,1-2.8,1.4-4.5,0.9c-2.3-0.6-4,0.1-5.7,1.8c-3.1,2.9-6.8,4.5-11.3,3.4
	c-1.7-0.4-3.2-0.1-4.5,1c-0.6,0.5-1.2,1-1.9,1.5c-1.3,1-2.8,1.5-4.5,1.4c-2.5-0.1-5.1,0-7.6,0c-4.2,0-7.5-1.7-9.8-5.2
	c-0.4-0.6-0.7-1.4-0.9-2.2c-0.2-1.3,0.7-2.6,2-2.3c3.8,0.8,7.1-1,10.5-1.8c2.8-0.7,4.1-3.3,3.5-6.3c-0.4-1.9-1.4-3.5-2.7-4.9
	c-0.9-1-1.5-2.2-1.3-3.6c0.3-1.7,1.8-2.5,3.2-1.7c1,0.6,1.9,1.4,2.9,2.1c1.5,1.1,3,1.1,4.4,0C383.4,397.9,384.4,397.2,385.4,396.4z
	 M507.2,377.1c0.7-0.3,1.2-0.7,1.8-0.9c2.3-1,2.9-1.9,2.5-4.3c-0.1-0.5-0.2-1-0.4-1.5c-0.9-2.7-1.7-5.3-2.6-8
	c-0.9-2.7-2.2-5.1-5.1-6.4c-0.7-0.3-1.3-0.9-2-1.4c-1.5-1.2-1.7-1.6-0.9-3.4c1-2.3,1.3-4.8,0.3-7c-1.9-4.6-4.6-8.7-9-11.4
	c-1.5-0.9-3-1-4.4,0.2c-1.2,1-2.4,2.1-3.6,3.2c-1.7,1.6-3.6,2.2-5.9,1.6c-0.6-0.2-1.3-0.3-2-0.4c-3.1-0.6-6.1-0.5-8.8,1.4
	c-0.6,0.5-1.4,0.7-2.2,1c-3.6,1.5-6.3,3.9-7.6,7.7c-0.4,1.1-1.1,2.1-1.7,3.2c-1.1,2.1-1.4,4.3-0.4,6.5c0.4,0.8,0.7,1.7,0.9,2.6
	c0.3,1.5-0.5,3-1.9,3.6c-0.7,0.3-1.5,0.4-2.3,0.6c-1.5,0.4-2.7,1.3-3.4,2.6c-0.9,1.6-1.8,3.3-2.5,5c-0.8,1.9-0.4,3.4,1.4,4.5
	c2.6,1.7,5.2,3.2,7.9,4.7c0.9,0.5,2.1,0.8,3.1,0.7c2.8-0.5,4.2,1,5.2,3.3c0.4,0.9,0.9,1.6,1.2,2.5c1.3,3.8,3.5,6.9,7.1,8.8
	c0.3,0.2,0.7,0.4,1,0.7c2.9,2.5,6.6,2.5,10.1,3.3c0.2,0.1,0.5,0,0.8-0.1c2.7-0.8,5.5-1.4,8-2.6c6-3,11.7-6.3,17.6-9.5
	c0.8-0.4,1.5-1.1,2.1-1.8c1.1-1.2,1.2-2.7,0.1-4c-0.6-0.7-1.4-1.3-2.1-1.8C508.6,379.6,507.5,379,507.2,377.1z"/>
<path id="XMLID_6_" class="st0" d="M411.6,424.9c0.9-0.6,1.7-1,2.5-1.5c0.8-0.6,1.7-1.3,2.4-2c0.6-0.5,1-1.4,1.7-1.7
	c1.8-0.8,3-2.1,4.3-3.5c1.4-1.7,2.4-1.5,3.8,0.4c0.9,1.2,1.7,2.4,2.5,3.6c1.2,1.7,2.7,2.5,4.8,2.4c0.5,0,1.1,0,1.6-0.1
	c2-0.1,3.6,0.5,5.1,1.8c1.6,1.4,3.3,2.7,5,4c1.4,1.1,2.9,1.2,4.4,0c0.5-0.4,1.1-0.8,1.6-1.1c1.3-0.8,2.7-1.1,4.2-0.4
	c0.9,0.4,1.8,0.7,2.7,0.8c4.3,0.8,8.4-1.6,9.7-5.7c1.1-3.5,2.1-4.2,5.8-3.6c1.3,0.2,2.6,0.6,3.9,0.8c3.4,0.5,4.5-0.1,6-3.2
	c0.1-0.2,0.2-0.5,0.3-0.7c0.5-1.8,1.8-2.5,3.6-2.7c1.8-0.3,3.7-0.6,5.5-1c2-0.4,3.8-1.1,5.4-2.4c1.8-1.6,3.8-3,5.7-4.4
	c0.7-0.6,1.5-1.1,2.4-1.4c1.3-0.6,2.6-0.2,3,1.1c1.7,5.4,6.7,7,10.9,9.2c1.8,0.9,3,0.3,3.9-1.6c0.2-0.4,0.3-0.7,0.4-1.1
	c0.4-1.6,1.6-2.4,3.1-2.8c1.9-0.5,3.9-1,5.8-1.6c1.2-0.4,2.4-1,3.7-1.6c0.4,0.2,0.9,0.4,1,0.7c1,2.5,3,3.2,5.5,3
	c0.8-0.1,1.6-0.2,2.4-0.1c3.9,0.5,6.6-1.4,8.9-4.3c4-5,3.6-4.5,0.4-8.8c-1.5-2.1-2.5-4.1-1.8-6.6c0.3-1.4,1.2-2.1,2.6-1.9
	c1,0.2,2.1,0.5,3.1,0.8c2.3,0.7,4.6,1.4,7,1c0.9-0.1,1.9,0.1,2.8,0.3c2.1,0.5,3.7-0.1,4.5-2.2c0.8-2.2,2.6-3.3,4.5-4.4
	c1.1-0.7,2.2-0.6,3.4-0.1c1.5,0.6,2.9,1.2,4.4,1.8c2,0.7,3.5,1.9,4.5,3.7c0.5,0.9,1.2,1.8,1.7,2.7c0.9,1.9,2.2,3.3,4,4.3
	c1.4,0.7,2.3,1.7,3.1,3c0.9,1.6,2.3,2.1,4.1,1.8c3-0.4,6.1-0.6,9.1-1c0.7-0.1,1.3-0.2,2-0.2c1.9-0.1,2.8,0.5,2.8,2.4
	c0,2.4,1.2,3.9,2.9,5.4c2.6,2.2,5.4,2.2,8.2,0.6c2.3-1.3,4.3-3.1,6.5-4.7c1.2-0.9,2.3-1.9,3.4-2.7c1.4-1,2.2-0.9,3.6,0.1
	c1.4,1,2.7,2.1,4.4,3.4c0,1.5,0,3.2,0,4.9c-1.5,1-3,1.8-4.4,2.8c-2,1.4-2.2,2.7-0.9,4.8c0.7,1.1,1.6,2.2,2.3,3.2
	c1.1,1.5,1.6,3.1,0,4.7c-1.1,1.2-1.2,2.6-1.1,4.1c0.1,2.3,0.1,4.5,0.2,6.8c0.1,2.7-1,4.9-2.5,7c-0.9,1.3-2.2,1.9-3.8,1.5
	c-0.4-0.1-0.8-0.2-1.2-0.3c-2.8-0.7-5,0-6.5,2.5c-0.5,0.8-1.2,1.5-1.7,2.2c-1.1,1.7-2.7,2.5-4.7,2.4c-0.8-0.1-1.6-0.2-2.4,0
	c-0.8,0.1-1.7,0.4-2.1,0.9c-2.2,2.7-5.4,3.2-8.5,4c-5.5,1.5-11.1,2.8-16.6,4.5c-3,0.9-6,2.3-8.9,3.5c-0.5,0.2-1,0.4-1.5,0.6
	c-1.1,0.3-2.2-0.2-2.7-1.2c-0.5-1-0.7-2-1.1-3c-0.5-1.3-1.5-1.9-2.8-1.8c-2.3,0.2-4.5,0.7-6.5,1.9c-2.1,1.3-4.1,1.5-6.3,0.1
	c-1-0.6-2.2-0.9-3.4-0.9c-0.8,0-1.9,0.3-2.5,0.9c-2.6,2.6-4.6,5.6-3.5,9.6c0.5,1.7,0.9,3.4,1.2,5.1c0.4,1.7-0.7,2.9-2.4,2.7
	c-0.8-0.1-1.5-0.4-2.3-0.6c-1.3-0.5-2.4-1.1-3.7-1.5c-5.3-1.6-9.7-0.1-13.4,3.8c-0.9,0.9-1.3,2-1.1,3.3c0.1,0.5,0.1,1.1,0.2,1.6
	c0.2,1.7-0.4,2.8-2,3.5c-0.9,0.4-1.7,0.8-2.5,1.2c-1.9,0.9-4.1,1.3-5.7,2.8c-0.6,0.5-1.7,0.2-2-0.6c-0.3-0.7-0.5-1.5-0.9-2.2
	c-0.7-1.3-1.8-1.9-3.3-1.6c-1.3,0.2-2.5,1.2-3.8,0.2c-1.1-0.9-0.6-2.2-0.7-3.4c-0.4-3.2-2-4.6-5.3-4.7c-1.6-0.1-3.2,0-4.8,0
	c-1.9,0.1-3.8-0.3-5.3-1.5c-1.8-1.4-3.8-1.5-6-1.2c-3.9,0.6-7.9,1-11.9,1.5c-1,0.1-1.9-0.2-2.5-1c-1.4-2.1-3.4-2.5-5.6-2
	c-2.5,0.5-4.1-0.7-5.3-2.6c-1-1.6-2.1-3.1-3.1-4.7c-0.9-1.5-2.2-2.3-3.8-2.6c-0.5-0.1-1.1-0.2-1.6-0.3c-1.7-0.5-2.5-1.4-2.4-3.2
	c0-0.9,0.3-1.8,0.4-2.8c0.1-2-0.5-3-2.4-3.7c-2-0.7-4.1-1.2-6.1-1.8c-0.8-0.2-1.6-0.3-2.3-0.5c-1.3-0.4-2-1.4-1.9-2.7
	c0-1.1,0.2-2.1,0.3-3.2c0.1-1.2-0.1-2.4-0.8-3.4c-1.5-1.9-2.9-3.8-4.4-5.7c-1.4-1.6-3.2-1.9-5-0.7c-1.5,1-2.9,2.4-4.1,3.7
	c-1.1,1.2-1.9,2.6-2.8,3.9c-0.4,0.5-0.8,1.1-1.2,1.6c-1.6,2-3.5,3.5-6.2,2.7c-2.7-0.8-3.8-3.2-4.5-5.7c-0.2-0.8-0.2-1.6-0.2-2.4
	c0-4-0.1-8-0.1-12C411.3,427,411.5,425.9,411.6,424.9z"/>
<path id="XMLID_5_" class="st0" d="M106.2,404c-0.2,0.6-0.2,1-0.5,1.3c-3.1,4-5.2,8.6-7.9,12.9c-0.4,0.7-1,1.3-1.6,1.7
	c-1.1,0.7-2.7,0.2-2.9-1.1c-0.7-4.4-2.7-8.3-3.8-12.6c-0.3-1.1-0.2-2.1,0.8-2.9c0.9-0.7,1.9-0.9,3-0.5c0.1,0,0.3,0.1,0.4,0.2
	c2.3,2,4.9,1.4,7.5,0.7c1.2-0.4,2.6-0.5,3.9-0.6C105.5,403.1,105.9,403.7,106.2,404z"/>
<path id="XMLID_4_" class="st0" d="M866.3,404.8c1.5,0,2.9-0.1,4.4,0c1.2,0.1,2.3,0.6,3.2,1.5c1.9,2,2.1,3.2,0.4,5.2
	c-0.3,0.4-0.6,0.9-0.9,1.3c-0.7,1-1.7,1.3-2.8,0.8c-2-0.8-4.1-1.3-6.2-1.1c-1.2,0.1-2.4,0.2-3.6,0.4c-1.6,0.2-2.9-0.3-3.9-1.6
	c-0.8-1.1-1.7-2.1-2.5-3.1c-0.9-1.2-0.3-2.4,1.1-2.7c0.3,0,0.5-0.1,0.8-0.1c3.3-0.2,6.6-0.5,10-0.7
	C866.3,404.7,866.3,404.8,866.3,404.8z"/>
<path id="XMLID_3_" class="st0" d="M127.7,391.4c-0.3,0.5-0.6,1.5-1.2,1.7c-2.2,0.9-4.5,1.6-6.8,2.2c-1.3,0.3-2.1-0.5-1.8-1.8
	c0.6-2.1,0.2-3.8-1.2-5.5c-1.2-1.4-0.7-2.7,1.1-3.5c1.7-0.8,3.4-1.4,5.2-2c1.8-0.6,3.2,0.2,3.6,2
	C127.2,386.6,127.4,388.9,127.7,391.4z"/>
<path id="XMLID_2_" class="st0" d="M114.9,397.2c-1.9,1.4-3.5,2.6-5.1,3.6c-0.3,0.2-1.1-0.1-1.3-0.4c-0.2-0.3-0.1-1.2,0.2-1.4
	c1.5-1.3,3.1-2.4,5.2-2.5C114,396.5,114.2,396.8,114.9,397.2z"/>
<path id="XMLID_1_" class="st0" d="M474.7,343.7c0.5,0.1,1.7,0.3,2.9,0.4c1.2,0.2,2.4,0.3,3.6,0.4c2.1,0.2,3.8-0.4,5.4-1.9
	c3.7-3.6,3.9-3.5,6.6,0.8c0.4,0.6,0.7,1.1,1,1.7c0.8,1.6,0.7,3.1-0.6,4.4c-0.6,0.7-1.3,1.3-1.9,2.1c-1.1,1.5-1,3.1,0.3,4.3
	c0.7,0.7,1.4,1.2,2.2,1.7c1.2,0.8,2.4,1.7,3.7,2.3c3.4,1.6,4.6,4.7,5.6,7.9c0.5,1.7,0.3,2.3-1.3,3.3c-1.5,1-2.7,2.1-3.5,3.8
	c-1.2,2.5-1,3.8,0.9,5.7c0.6,0.6,1.2,1,1.7,1.6c0.7,0.9,0.5,2.2-0.5,2.8c-1,0.6-2.1,1.1-3.2,1.6c-3.1,1.6-6.1,3.4-9.2,4.9
	c-1.7,0.8-3.5,1.3-5.3,1.6c-2.1,0.4-4.1-0.3-6.1-1.3c-3.6-2-5.9-4.8-7.4-8.6c-0.9-2.4-2.1-4.6-3.2-6.9c-0.1-0.2-0.3-0.5-0.4-0.7
	c-1.5-2.3-2.9-3-5.4-1.8c-2.3,1.1-4.1,0.5-6-0.6c-0.7-0.4-1.2-1.1-1.1-2c0.1-0.9,0.7-1.4,1.5-1.7c0.9-0.3,1.8-0.5,2.7-0.7
	c1.9-0.4,3.1-1.6,3.6-3.4c0.9-3.2,1.8-6.4,0.3-9.7c-0.4-0.8-0.4-1.9-0.2-2.7C463.2,347.2,469.2,343.6,474.7,343.7z"/>
</svg>
