<?xml version="1.0" encoding="utf-8"?>
<!-- Generator: Adobe Illustrator 17.1.0, SVG Export Plug-In . SVG Version: 6.00 Build 0)  -->
<!DOCTYPE svg PUBLIC "-//W3C//DTD SVG 1.1//EN" "http://www.w3.org/Graphics/SVG/1.1/DTD/svg11.dtd">
<svg version="1.1" id="Layer_1" xmlns="http://www.w3.org/2000/svg" xmlns:xlink="http://www.w3.org/1999/xlink" x="0px" y="0px"
	 viewBox="9 1 32 48" enable-background="new 9 1 32 48" xml:space="preserve">
<path fill="#F7A400" d="M25,1C16.2,1,9,8.2,9,17c0,14.1,14.6,30.9,15.3,31.7c0.2,0.2,0.5,0.3,0.8,0.3c0.3,0,0.6-0.1,0.8-0.3
	C26.4,47.9,41,30.8,41,17C41,8.2,33.8,1,25,1z M25,12c3.3,0,6,2.7,6,6s-2.7,6-6,6s-6-2.7-6-6S21.7,12,25,12z"/>
</svg>
