<?xml version="1.0" encoding="utf-8"?>
<!-- Generator: Adobe Illustrator 17.1.0, SVG Export Plug-In . SVG Version: 6.00 Build 0)  -->
<!DOCTYPE svg PUBLIC "-//W3C//DTD SVG 1.1//EN" "http://www.w3.org/Graphics/SVG/1.1/DTD/svg11.dtd">
<svg version="1.1" id="Layer_1" xmlns="http://www.w3.org/2000/svg" xmlns:xlink="http://www.w3.org/1999/xlink" x="0px" y="0px"
	 viewBox="204 1 53.5 80.3" enable-background="new 204 1 53.5 80.3" xml:space="preserve">
<path fill="#F7A400" d="M230.8,1C216,1,204,13,204,27.8c0,23.6,24.4,51.7,25.6,53c0.3,0.3,0.8,0.5,1.3,0.5c0.5,0,1-0.2,1.3-0.5
	c0.8-1.3,25.2-29.9,25.2-53C257.5,13,245.5,1,230.8,1z M230.8,19.4c5.5,0,10,4.5,10,10s-4.5,10-10,10s-10-4.5-10-10
	S225.2,19.4,230.8,19.4z"/>
</svg>
